<svg width="30" height="30" viewBox="0 0 30 30" fill="none" xmlns="http://www.w3.org/2000/svg">
<path d="M13.1268 2.80267C14.1463 1.73244 15.8537 1.73244 16.8732 2.80267C17.5418 3.5045 18.5465 3.77372 19.4764 3.50021C20.8945 3.08311 22.3731 3.93681 22.7209 5.3734C22.949 6.31548 23.6845 7.05103 24.6266 7.2791C26.0632 7.6269 26.9169 9.10555 26.4998 10.5236C26.2263 11.4535 26.4955 12.4582 27.1973 13.1268C28.2676 14.1463 28.2676 15.8537 27.1973 16.8732C26.4955 17.5418 26.2263 18.5465 26.4998 19.4764C26.9169 20.8945 26.0632 22.3731 24.6266 22.7209C23.6845 22.949 22.949 23.6845 22.7209 24.6266C22.3731 26.0632 20.8945 26.9169 19.4764 26.4998C18.5465 26.2263 17.5418 26.4955 16.8732 27.1973C15.8537 28.2676 14.1463 28.2676 13.1268 27.1973C12.4582 26.4955 11.4535 26.2263 10.5236 26.4998C9.10555 26.9169 7.6269 26.0632 7.2791 24.6266C7.05103 23.6845 6.31548 22.949 5.3734 22.7209C3.93681 22.3731 3.08311 20.8945 3.50021 19.4764C3.77372 18.5465 3.50449 17.5418 2.80267 16.8732C1.73244 15.8537 1.73244 14.1463 2.80267 13.1268C3.5045 12.4582 3.77372 11.4535 3.50021 10.5236C3.08311 9.10555 3.93681 7.6269 5.3734 7.2791C6.31548 7.05103 7.05103 6.31548 7.2791 5.3734C7.6269 3.93681 9.10555 3.08311 10.5236 3.50021C11.4535 3.77372 12.4582 3.50449 13.1268 2.80267Z" fill="#15765B"/>
<path d="M11.9997 13.9417C12.5189 13.9417 13.0264 13.7969 13.458 13.5254C13.8896 13.254 14.2261 12.8681 14.4247 12.4167C14.6234 11.9653 14.6754 11.4686 14.5741 10.9894C14.4728 10.5102 14.2228 10.07 13.8557 9.72451C13.4887 9.37902 13.021 9.14374 12.5118 9.04842C12.0027 8.9531 11.4749 9.00202 10.9953 9.189C10.5157 9.37598 10.1057 9.69262 9.81732 10.0989C9.52891 10.5051 9.37497 10.9827 9.37497 11.4713C9.37497 12.1265 9.65151 12.7549 10.1437 13.2182C10.636 13.6815 11.3036 13.9417 11.9997 13.9417ZM11.9997 10.4126C12.2222 10.4126 12.4397 10.4747 12.6247 10.591C12.8097 10.7074 12.9539 10.8727 13.039 11.0662C13.1242 11.2596 13.1464 11.4725 13.103 11.6779C13.0596 11.8833 12.9525 12.0719 12.7952 12.22C12.6379 12.3681 12.4374 12.4689 12.2192 12.5097C12.001 12.5506 11.7748 12.5296 11.5693 12.4495C11.3637 12.3694 11.188 12.2337 11.0644 12.0595C10.9408 11.8854 10.8748 11.6807 10.8748 11.4713C10.8748 11.1905 10.9934 10.9213 11.2043 10.7227C11.4153 10.5242 11.7014 10.4126 11.9997 10.4126ZM17.9992 16.0592C17.4801 16.0592 16.9726 16.2041 16.541 16.4756C16.1093 16.747 15.7729 17.1328 15.5743 17.5842C15.3756 18.0356 15.3236 18.5323 15.4249 19.0116C15.5262 19.4908 15.7762 19.9309 16.1432 20.2764C16.5103 20.6219 16.978 20.8572 17.4872 20.9525C17.9963 21.0479 18.5241 20.9989 19.0037 20.812C19.4833 20.625 19.8932 20.3083 20.1817 19.9021C20.4701 19.4958 20.624 19.0182 20.624 18.5296C20.624 17.8744 20.3475 17.2461 19.8552 16.7828C19.363 16.3195 18.6954 16.0592 17.9992 16.0592ZM17.9992 19.5883C17.7768 19.5883 17.5593 19.5263 17.3743 19.4099C17.1893 19.2936 17.0451 19.1282 16.96 18.9348C16.8748 18.7413 16.8525 18.5284 16.8959 18.3231C16.9394 18.1177 17.0465 17.929 17.2038 17.781C17.3611 17.6329 17.5616 17.5321 17.7798 17.4912C17.998 17.4504 18.2242 17.4713 18.4297 17.5515C18.6353 17.6316 18.811 17.7673 18.9346 17.9414C19.0582 18.1155 19.1241 18.3202 19.1241 18.5296C19.1241 18.8104 19.0056 19.0797 18.7947 19.2782C18.5837 19.4768 18.2976 19.5883 17.9992 19.5883ZM20.804 9.18447C20.742 9.12599 20.6684 9.0796 20.5873 9.04795C20.5062 9.01629 20.4193 9 20.3315 9C20.2438 9 20.1569 9.01629 20.0758 9.04795C19.9947 9.0796 19.9211 9.12599 19.8591 9.18447L9.19498 19.2213C9.07124 19.3402 9.00134 19.4996 9 19.666C8.9998 19.7904 9.03884 19.912 9.11216 20.0155C9.18549 20.119 9.2898 20.1996 9.41189 20.2473C9.53397 20.2949 9.66833 20.3073 9.79793 20.283C9.92754 20.2587 10.0466 20.1987 10.1399 20.1107L20.804 10.0738C20.8661 10.0155 20.9154 9.94615 20.9491 9.86985C20.9827 9.79354 21 9.71175 21 9.62914C21 9.54653 20.9827 9.46473 20.9491 9.38843C20.9154 9.31213 20.8661 9.24282 20.804 9.18447Z" fill="white"/>
</svg>
