<svg width="30" height="30" viewBox="0 0 30 30" fill="none" xmlns="http://www.w3.org/2000/svg">
<g clip-path="url(#clip0_766_23935)">
<path d="M10.2751 7.36354C10.7495 6.88919 11.3691 6.58751 12.0351 6.5067L20.8874 5.43253C22.8207 5.19795 24.4615 6.83883 24.227 8.77207L23.1528 17.6244C23.072 18.2904 22.7703 18.91 22.296 19.3844L13.6437 28.0366C12.4721 29.2082 10.5726 29.2082 9.40102 28.0366L1.62285 20.2585C0.451273 19.0869 0.451273 17.1874 1.62285 16.0158L10.2751 7.36354Z" fill="#15765B"/>
<path d="M13.3021 13.3478C13.6682 13.7139 13.6682 14.3075 13.3021 14.6737L8.14582 19.8299C7.77971 20.196 7.18611 20.196 6.82 19.8299C6.45388 19.4638 6.45388 18.8702 6.82 18.5041L11.9762 13.3478C12.3424 12.9817 12.936 12.9817 13.3021 13.3478Z" fill="white"/>
<path d="M12.9484 20.0651C13.3145 20.4312 13.3145 21.0248 12.9484 21.3909L11.3277 23.0117C10.9616 23.3778 10.368 23.3778 10.0019 23.0117C9.63577 22.6455 9.63577 22.0519 10.0019 21.6858L11.6226 20.0651C11.9887 19.699 12.5823 19.699 12.9484 20.0651Z" fill="white"/>
<path d="M20.3305 10.4248C20.1547 10.6006 19.9162 10.6994 19.6676 10.6994C19.419 10.6994 19.1805 10.6006 19.0047 10.4248C18.8289 10.249 18.7301 10.0105 18.7301 9.76186C18.7301 9.51322 18.8289 9.27476 19.0047 9.09895C19.1805 8.92313 19.419 8.82436 19.6676 8.82436C19.9162 8.82436 20.1547 8.92313 20.3305 9.09895C20.5063 9.27476 20.6051 9.51322 20.6051 9.76186C20.6051 10.0105 20.5063 10.249 20.3305 10.4248Z" fill="white"/>
</g>
<defs>
<clipPath id="clip0_766_23935">
<rect width="30" height="30" fill="white"/>
</clipPath>
</defs>
</svg>
