<svg width="85" height="34" viewBox="0 0 85 34" fill="none" xmlns="http://www.w3.org/2000/svg">
<path fill-rule="evenodd" clip-rule="evenodd" d="M10.0845 30.5654C5.93308 28.2337 1.64269 24.8993 0.828335 21.565C0.683195 20.9707 0.597762 19.6946 0.550605 18.0938C3.88027 18.555 6.39759 19.7985 8.26978 21.414C8.3788 21.6584 8.48243 21.9057 8.58083 22.1553C9.75152 25.1247 10.1467 28.3376 10.0845 30.5654ZM11.0721 31.1031C11.7622 31.4671 12.4402 31.8004 13.089 32.0985C13.117 30.0499 12.5484 27.2355 10.9884 24.6502C10.7079 24.1854 10.3953 23.7278 10.0482 23.2836C10.9316 26.1464 11.1974 29.0627 11.0721 31.1031ZM14.0855 32.5386C14.2068 30.2444 13.6106 27.0288 11.8491 24.1096C11.133 22.9228 10.2244 21.7853 9.09458 20.7777C7.50519 17.3355 4.80307 14.3189 0.5 13.6981C0.501482 11.3735 0.534182 9.00068 0.558437 7.24064C0.572931 6.18888 0.58441 5.35592 0.58441 4.88281C4.79693 6.55115 13.7873 11.0476 15.9989 17.5156C17.0368 20.5511 16.838 29.6489 16.7727 32.6343C16.7635 33.0568 16.7569 33.3568 16.7569 33.5C16.0261 33.2996 15.1091 32.9718 14.0855 32.5386ZM0.501583 14.741C3.4954 15.2193 5.64455 16.9992 7.14365 19.3197C5.3604 18.2117 3.17577 17.3957 0.52585 17.0503C0.512174 16.3167 0.504638 15.5378 0.501583 14.741Z" fill="#15765B"/>
<path d="M27.4544 11.8438C26.6121 15.4531 20.2947 19.0625 17.5993 19.8359C17.5993 19.0625 16.8412 11.5859 17.5993 9.26562C19.0144 4.93438 24.759 1.61719 27.4544 0.5C27.4544 2.13281 27.8056 10.3389 27.4544 11.8438Z" fill="#15765B"/>
<path d="M47.7036 31.6412L48.4904 29.3479H49.1486C49.3252 30.0359 49.4376 31.4446 49.4376 32.3292C48.683 32.8042 47.4789 32.9844 46.3068 32.9844C42.7586 32.9844 40.4467 31.2317 40.4467 27.0383C40.4467 22.8777 43.0637 21.125 46.066 21.125C47.4789 21.125 48.667 21.3543 49.3894 21.6983C49.3894 22.4027 49.1968 24.0407 49.0202 24.8433H48.3459L47.4628 22.3699C47.2702 22.2552 46.7885 22.1897 46.3389 22.1897C44.605 22.1897 43.1118 23.5821 43.1118 27.0547C43.1118 30.1833 44.4123 31.9197 46.5156 31.9197C47.1096 31.9197 47.5591 31.8214 47.7036 31.6412Z" fill="#727272"/>
<path d="M28.3425 27.0547C28.3425 23.6312 30.2531 21.125 33.7692 21.125C37.2853 21.125 39.1798 23.6312 39.1798 27.0547C39.1798 30.4782 37.2853 32.9844 33.7692 32.9844C30.2531 32.9844 28.3425 30.4782 28.3425 27.0547ZM31.0719 27.0547C31.0719 29.8557 31.9068 31.9197 33.9137 31.9197C35.76 31.9197 36.4504 29.8557 36.4504 27.0547C36.4504 24.2536 35.6958 22.1897 33.6407 22.1897C31.6499 22.1897 31.0719 24.2536 31.0719 27.0547Z" fill="#727272"/>
<path d="M21.4926 28.4142V31.6902C22.0705 31.7721 22.6646 31.9523 23.1141 32.1653V32.7877H17.7677V32.1653C18.1691 31.9196 18.6508 31.7721 19.0843 31.6902V22.419C18.5865 22.3371 18.137 22.1569 17.7677 21.9439V21.3215H19.7907C20.6416 21.3215 21.8618 21.1904 22.777 21.1904C25.0408 21.1904 27.2885 22.0258 27.2885 24.7286C27.2885 27.3003 25.105 28.4633 22.777 28.4633C22.5683 28.4633 21.7173 28.4633 21.4926 28.4142ZM22.3595 22.2552C21.926 22.2552 21.7334 22.2879 21.4926 22.3534V27.3331C21.6852 27.3986 22.1508 27.3986 22.3916 27.3986C23.5316 27.3986 24.6394 26.6451 24.6394 24.8105C24.6394 23.0578 23.7242 22.2552 22.3595 22.2552Z" fill="#727272"/>
<path d="M79.7795 21.9437V21.3213H84.0823V21.9437C83.7131 22.1894 83.1993 22.3533 82.814 22.4188L79.7635 26.3664C80.7428 27.7751 82.4929 30.0029 84.0021 31.7556L84.7727 32.2306V32.7875H81.9791L81.3369 32.3289C80.3093 31.0021 79.041 29.0692 78.1098 27.4148H77.4194V31.6901C77.885 31.772 78.2864 31.9685 78.5593 32.1651V32.7875H73.6946V32.1651C74.1281 31.9521 74.5776 31.772 75.0111 31.6901V22.4188C74.5134 22.3533 74.0317 22.1567 73.6946 21.9437V21.3213H78.5593V21.9437C78.2864 22.1239 77.8689 22.3041 77.4194 22.4188V26.5794L78.3667 26.3501L80.9516 22.4188C80.5181 22.3369 80.0846 22.1239 79.7795 21.9437Z" fill="#15765B"/>
<path d="M61.8955 27.0547C61.8955 23.6312 63.8061 21.125 67.3222 21.125C70.8383 21.125 72.7328 23.6312 72.7328 27.0547C72.7328 30.4782 70.8383 32.9844 67.3222 32.9844C63.8061 32.9844 61.8955 30.4782 61.8955 27.0547ZM64.6249 27.0547C64.6249 29.8557 65.4597 31.9197 67.4667 31.9197C69.313 31.9197 70.0034 29.8557 70.0034 27.0547C70.0034 24.2536 69.2488 22.1897 67.1937 22.1897C65.2029 22.1897 64.6249 24.2536 64.6249 27.0547Z" fill="#15765B"/>
<path d="M58.6685 32.1651V32.7875H53.1455V32.1651C53.579 31.9849 54.1409 31.772 54.7029 31.6901V22.386H52.8404L51.8129 25.1871H51.1546C50.978 24.3025 50.8014 22.3369 50.8014 21.3213H61.0286C61.0286 22.3696 60.852 24.2698 60.6754 25.1871H60.0011L58.9736 22.386H57.1111V31.6901C57.6731 31.8047 58.235 31.9521 58.6685 32.1651Z" fill="#15765B"/>
</svg>
