<svg width="24" height="24" viewBox="0 0 24 24" fill="none" xmlns="http://www.w3.org/2000/svg">
<path fill-rule="evenodd" clip-rule="evenodd" d="M3.25 5.75C3.25 5.33579 3.58579 5 4 5H20C20.4142 5 20.75 5.33579 20.75 5.75C20.75 6.16421 20.4142 6.5 20 6.5H4C3.58579 6.5 3.25 6.16421 3.25 5.75ZM3.25 11.75C3.25 11.3358 3.58579 11 4 11H20C20.4142 11 20.75 11.3358 20.75 11.75C20.75 12.1642 20.4142 12.5 20 12.5H4C3.58579 12.5 3.25 12.1642 3.25 11.75ZM3.25 17.75C3.25 17.3358 3.58579 17 4 17H20C20.4142 17 20.75 17.3358 20.75 17.75C20.75 18.1642 20.4142 18.5 20 18.5H4C3.58579 18.5 3.25 18.1642 3.25 17.75Z" fill="#222222"/>
<path fill-rule="evenodd" clip-rule="evenodd" d="M2.75 5.75C2.75 5.05964 3.30964 4.5 4 4.5H20C20.6904 4.5 21.25 5.05964 21.25 5.75C21.25 6.44036 20.6904 7 20 7H4C3.30964 7 2.75 6.44036 2.75 5.75ZM4 5.5C3.86193 5.5 3.75 5.61193 3.75 5.75C3.75 5.88807 3.86193 6 4 6H20C20.1381 6 20.25 5.88807 20.25 5.75C20.25 5.61193 20.1381 5.5 20 5.5H4ZM2.75 11.75C2.75 11.0596 3.30964 10.5 4 10.5H20C20.6904 10.5 21.25 11.0596 21.25 11.75C21.25 12.4404 20.6904 13 20 13H4C3.30964 13 2.75 12.4404 2.75 11.75ZM4 11.5C3.86193 11.5 3.75 11.6119 3.75 11.75C3.75 11.8881 3.86193 12 4 12H20C20.1381 12 20.25 11.8881 20.25 11.75C20.25 11.6119 20.1381 11.5 20 11.5H4ZM2.75 17.75C2.75 17.0596 3.30964 16.5 4 16.5H20C20.6904 16.5 21.25 17.0596 21.25 17.75C21.25 18.4404 20.6904 19 20 19H4C3.30964 19 2.75 18.4404 2.75 17.75ZM4 17.5C3.86193 17.5 3.75 17.6119 3.75 17.75C3.75 17.8881 3.86193 18 4 18H20C20.1381 18 20.25 17.8881 20.25 17.75C20.25 17.6119 20.1381 17.5 20 17.5H4Z" fill="#222222"/>
</svg>
