<svg width="14" height="15" viewBox="0 0 14 15" fill="none" xmlns="http://www.w3.org/2000/svg">
<path fill-rule="evenodd" clip-rule="evenodd" d="M3.97122 2.69277C4.78261 2.74084 5.57767 2.44845 6.16866 1.88465C6.63531 1.43945 7.36469 1.43945 7.83135 1.88465C8.42233 2.44845 9.21739 2.74084 10.0288 2.69277C10.6695 2.65481 11.2282 3.12852 11.3025 3.77265C11.3379 4.08022 11.673 4.1987 11.9046 4.05342L12.2454 3.83964C12.3096 3.79937 12.344 3.72557 12.3354 3.65107C12.1974 2.45379 11.1588 1.57327 9.96791 1.64383C9.44261 1.67495 8.92789 1.48566 8.54528 1.12064C7.67787 0.293119 6.32213 0.293118 5.45472 1.12064C5.07211 1.48566 4.55739 1.67495 4.03209 1.64383C2.84117 1.57327 1.80261 2.45379 1.66458 3.65107C1.6037 4.17918 1.32982 4.65849 0.907616 4.97582C-0.0495693 5.69524 -0.284991 7.04428 0.370946 8.0511C0.660271 8.4952 0.755389 9.04025 0.633837 9.55755C0.571568 9.82255 0.557971 10.0886 0.587565 10.3455C0.609087 10.5324 0.727901 10.6667 0.876965 10.7259C1.02289 10.784 1.19631 10.7707 1.3421 10.6792C1.54247 10.5535 1.61961 10.3243 1.61324 10.1225C1.60989 10.0166 1.62022 9.90845 1.64564 9.80027C1.83339 9.00123 1.68647 8.15933 1.23957 7.47336C1.19814 7.40978 1.16333 7.34366 1.13497 7.27585C1.10961 7.20295 1.08714 7.13178 1.06786 7.06234C0.968969 6.6054 1.1359 6.11381 1.52829 5.81889C2.18044 5.32874 2.60348 4.58838 2.69752 3.77265C2.77178 3.12852 3.33051 2.65481 3.97122 2.69277ZM11.4716 3.74904C11.4718 3.75026 11.4719 3.75147 11.4721 3.75269C11.4911 3.91789 11.6747 3.99459 11.8146 3.90686L12.1554 3.69308C12.1628 3.68842 12.1668 3.67982 12.1658 3.67103C12.1657 3.67017 12.1656 3.66931 12.1655 3.66845C12.0362 2.56397 11.0773 1.75223 9.97806 1.81736C9.40579 1.85127 8.84504 1.64505 8.42822 1.2474C7.62661 0.482639 6.3737 0.482639 5.57208 1.2474C5.15527 1.64505 4.59452 1.85127 4.02225 1.81736C2.92166 1.75215 1.96188 2.56589 1.83432 3.67235C1.76799 4.24768 1.46962 4.76985 1.00967 5.11555C0.393063 5.579 0.100555 6.32516 0.185232 7.04986M0.841884 8.86563C0.870157 9.10772 0.856826 9.35535 0.799951 9.59739C0.74235 9.84253 0.729825 10.0883 0.757152 10.3256C0.757203 10.326 0.757254 10.3265 0.757306 10.3269M0.841884 8.86563C0.87036 9.10814 0.857084 9.35623 0.800106 9.59871C0.742505 9.84385 0.729979 10.0896 0.757306 10.3269M2.21892 11.3845L2.10502 11.4559C1.95081 11.5527 1.86995 11.7179 1.87813 11.8803C1.88657 12.0478 1.99088 12.205 2.17912 12.2619C2.68327 12.4142 3.10288 12.7699 3.33886 13.2452C3.87384 14.3225 5.14782 14.7911 6.24303 14.3132C6.72612 14.1024 7.27388 14.1024 7.75696 14.3132C8.85218 14.7911 10.1262 14.3225 10.6611 13.2452C10.8971 12.7699 11.3167 12.4142 11.8209 12.2619C12.9639 11.9166 13.6417 10.7303 13.3662 9.55755C13.2446 9.04025 13.3397 8.4952 13.6291 8.0511C14.285 7.04428 14.0496 5.69524 13.0924 4.97582C12.9272 4.8517 12.6901 4.81593 12.4952 4.93818L12.4716 4.95301C12.1967 5.12547 12.118 5.53847 12.4051 5.7673C12.427 5.78479 12.4492 5.80199 12.4717 5.81889C12.9867 6.20594 13.1133 6.9317 12.7604 7.47336C12.3135 8.15933 12.1666 9.00123 12.3544 9.80027C12.5026 10.4312 12.1379 11.0694 11.523 11.2552C10.7443 11.4904 10.0961 12.0399 9.73165 12.774C9.44383 13.3536 8.75845 13.6056 8.16923 13.3485C7.42304 13.023 6.57696 13.023 5.83077 13.3485C5.24155 13.6056 4.55616 13.3536 4.26835 12.774C3.93974 12.1122 3.38059 11.6004 2.70303 11.3337C2.53777 11.2686 2.35907 11.2966 2.21892 11.3845ZM2.64105 11.4944C2.53149 11.4513 2.40887 11.4684 2.30897 11.531L2.19507 11.6025C2.08717 11.6702 2.03822 11.7849 2.05002 11.8883C2.03878 11.7852 2.08779 11.6712 2.19523 11.6038L2.30912 11.5324C2.40902 11.4697 2.53164 11.4526 2.64121 11.4957C3.27953 11.747 3.80632 12.2292 4.1159 12.8526C4.4443 13.514 5.22632 13.8016 5.89861 13.5082C6.6016 13.2015 7.39871 13.2015 8.1017 13.5082C8.77399 13.8016 9.55601 13.514 9.88441 12.8526C10.2278 12.1611 10.8384 11.6434 11.5721 11.4218C12.2216 11.2256 12.6265 10.5869 12.5487 9.92193C12.6258 10.5864 12.221 11.2244 11.5719 11.4205C10.8383 11.6421 10.2276 12.1598 9.88425 12.8513C9.55586 13.5127 8.77383 13.8003 8.10155 13.5069C7.39855 13.2002 6.60144 13.2002 5.89845 13.5069C5.22616 13.8003 4.44414 13.5127 4.11575 12.8513C3.80616 12.2279 3.27938 11.7457 2.64105 11.4944ZM12.464 9.43717C12.3891 8.78532 12.5423 8.12346 12.9032 7.56953C13.089 7.2844 13.1583 6.95456 13.1213 6.63858C13.1579 6.95415 13.0885 7.28348 12.903 7.56821C12.5419 8.12251 12.3887 8.78489 12.464 9.43717ZM12.3977 5.43129C12.3831 5.30789 12.4424 5.17577 12.5618 5.10089L12.5854 5.08606C12.7111 5.00726 12.872 5.02638 12.9906 5.11555C13.4664 5.47316 13.7493 5.9991 13.8147 6.55362C13.7495 5.99862 13.4667 5.47212 12.9905 5.11423C12.8718 5.02506 12.7109 5.00594 12.5853 5.08474L12.5616 5.09957C12.4418 5.17472 12.3826 5.30751 12.3977 5.43129ZM13.1578 9.35557C13.1672 9.43696 13.1813 9.51815 13.2002 9.59872C13.2193 9.67999 13.2334 9.76134 13.2428 9.84243C13.2334 9.7609 13.2193 9.67911 13.2001 9.59739C13.1812 9.51726 13.1672 9.43652 13.1578 9.35557Z" fill="white"/>
<path d="M5.49987 6.97087C5.75944 6.97087 6.01318 6.89843 6.229 6.7627C6.44482 6.62698 6.61303 6.43406 6.71236 6.20836C6.81169 5.98266 6.83768 5.7343 6.78705 5.4947C6.73641 5.25509 6.61141 5.035 6.42787 4.86226C6.24433 4.68951 6.01049 4.57187 5.75591 4.52421C5.50133 4.47655 5.23745 4.50101 4.99764 4.5945C4.75784 4.68799 4.55287 4.84631 4.40866 5.04943C4.26445 5.25256 4.18748 5.49137 4.18748 5.73567C4.18748 6.06327 4.32575 6.37744 4.57187 6.60909C4.818 6.84073 5.15181 6.97087 5.49987 6.97087ZM5.49987 5.2063C5.61112 5.2063 5.71986 5.23735 5.81236 5.29552C5.90485 5.35369 5.97694 5.43636 6.01951 5.53309C6.06208 5.62982 6.07322 5.73626 6.05152 5.83895C6.02982 5.94164 5.97625 6.03596 5.89759 6.10999C5.81893 6.18403 5.71871 6.23444 5.6096 6.25487C5.5005 6.2753 5.38741 6.26481 5.28463 6.22475C5.18186 6.18468 5.09401 6.11683 5.03221 6.02977C4.97041 5.94272 4.93742 5.84037 4.93742 5.73567C4.93742 5.59527 4.99668 5.46063 5.10216 5.36135C5.20764 5.26208 5.3507 5.2063 5.49987 5.2063ZM8.49962 8.02961C8.24005 8.02961 7.98632 8.10205 7.7705 8.23778C7.55467 8.3735 7.38646 8.56641 7.28713 8.79211C7.1878 9.01782 7.16181 9.26617 7.21245 9.50578C7.26309 9.74538 7.38808 9.96547 7.57162 10.1382C7.75516 10.311 7.98901 10.4286 8.24359 10.4763C8.49816 10.5239 8.76204 10.4995 9.00185 10.406C9.24166 10.3125 9.44662 10.1542 9.59083 9.95104C9.73504 9.74791 9.81201 9.5091 9.81201 9.2648C9.81201 8.93721 9.67374 8.62303 9.42762 8.39139C9.1815 8.15974 8.84769 8.02961 8.49962 8.02961ZM8.49962 9.79417C8.38838 9.79417 8.27963 9.76313 8.18714 9.70496C8.09464 9.64679 8.02255 9.56411 7.97998 9.46738C7.93741 9.37065 7.92627 9.26422 7.94797 9.16153C7.96968 9.05884 8.02325 8.96452 8.10191 8.89048C8.18057 8.81645 8.28079 8.76603 8.38989 8.74561C8.499 8.72518 8.61209 8.73566 8.71486 8.77573C8.81764 8.8158 8.90548 8.88365 8.96728 8.9707C9.02909 9.05776 9.06207 9.1601 9.06207 9.2648C9.06207 9.4052 9.00281 9.53985 8.89733 9.63912C8.79185 9.7384 8.64879 9.79417 8.49962 9.79417ZM9.902 4.59223C9.871 4.563 9.83418 4.5398 9.79365 4.52397C9.75311 4.50815 9.70966 4.5 9.66577 4.5C9.62189 4.5 9.57843 4.50815 9.5379 4.52397C9.49736 4.5398 9.46054 4.563 9.42954 4.59223L4.09749 9.61066C4.03562 9.67009 4.00067 9.74979 4 9.83299C3.9999 9.89518 4.01942 9.956 4.05608 10.0077C4.09274 10.0595 4.1449 10.0998 4.20594 10.1236C4.26699 10.1474 4.33416 10.1537 4.39897 10.1415C4.46377 10.1293 4.52328 10.0994 4.56995 10.0553L9.902 5.0369C9.93307 5.00773 9.95771 4.97307 9.97453 4.93492C9.99134 4.89677 10 4.85587 10 4.81457C10 4.77327 9.99134 4.73237 9.97453 4.69422C9.95771 4.65606 9.93307 4.62141 9.902 4.59223Z" fill="white"/>
</svg>
