<svg width="12" height="15" viewBox="0 0 12 15" fill="none" xmlns="http://www.w3.org/2000/svg">
<path fill-rule="evenodd" clip-rule="evenodd" d="M1.83325 5.49967C1.83325 4.11402 2.30963 3.08535 3.04161 2.40082C3.77891 1.71131 4.8166 1.33301 5.99992 1.33301C7.18205 1.33301 8.21991 1.7144 8.95779 2.40612C9.69057 3.09306 10.1666 4.12222 10.1666 5.49967C10.1666 7.51266 9.07723 9.57201 7.92725 11.1719C7.35878 11.9628 6.78939 12.6224 6.36211 13.0841C6.22483 13.2324 6.1025 13.3601 5.99992 13.4647C5.89734 13.3601 5.775 13.2324 5.63773 13.0841C5.21044 12.6224 4.64106 11.9628 4.07259 11.1719C2.9226 9.57201 1.83325 7.51266 1.83325 5.49967ZM5.6601 14.5331C5.66023 14.5332 5.66034 14.5333 5.99992 14.1663L6.3395 14.5333C6.14784 14.7107 5.85176 14.7105 5.6601 14.5331ZM5.6601 14.5331L5.99992 14.1663C6.3395 14.5333 6.33995 14.5329 6.34007 14.5328L6.34107 14.5319L6.34434 14.5288L6.35583 14.5181L6.39791 14.4781C6.43417 14.4435 6.48648 14.3928 6.55255 14.3273C6.68465 14.1963 6.87195 14.0055 7.09606 13.7633C7.54378 13.2795 8.14106 12.5878 8.73925 11.7555C9.9226 10.1092 11.1666 7.83525 11.1666 5.49967C11.1666 3.87713 10.5979 2.57296 9.64171 1.67656C8.69059 0.78495 7.39511 0.333008 5.99992 0.333008C4.60591 0.333008 3.31027 0.780423 2.35857 1.67044C1.40154 2.56543 0.833252 3.8701 0.833252 5.49967C0.833252 7.83525 2.07723 10.1092 3.26059 11.7555C3.85878 12.5878 4.45606 13.2795 4.90378 13.7633C5.12789 14.0055 5.31519 14.1963 5.44729 14.3273C5.51336 14.3928 5.56567 14.4435 5.60193 14.4781L5.64401 14.5181L5.6555 14.5288L5.65876 14.5319L5.6601 14.5331ZM4.49992 5.49967C4.49992 4.67125 5.17149 3.99967 5.99992 3.99967C6.82835 3.99967 7.49992 4.67125 7.49992 5.49967C7.49992 6.3281 6.82835 6.99967 5.99992 6.99967C5.17149 6.99967 4.49992 6.3281 4.49992 5.49967ZM5.99992 2.99967C4.61921 2.99967 3.49992 4.11896 3.49992 5.49967C3.49992 6.88039 4.61921 7.99967 5.99992 7.99967C7.38063 7.99967 8.49992 6.88039 8.49992 5.49967C8.49992 4.11896 7.38063 2.99967 5.99992 2.99967Z" fill="#15765B"/>
</svg>
