<svg width="60" height="60" viewBox="0 0 60 60" fill="none" xmlns="http://www.w3.org/2000/svg">
<path fill-rule="evenodd" clip-rule="evenodd" d="M30 7.5C30.6711 7.5 31.2816 7.87497 31.5668 8.46219L37.5924 20.8719L51.0306 22.8566C51.6719 22.9513 52.2045 23.3847 52.4104 23.9794C52.6164 24.574 52.461 25.23 52.008 25.6789L42.2334 35.3631L44.5443 49.0576C44.651 49.6899 44.3747 50.3256 43.8329 50.6946C43.2911 51.0637 42.5788 51.1011 41.9987 50.7912L30 44.3795L18.0013 50.7912C17.4212 51.1011 16.7089 51.0637 16.1671 50.6946C15.6253 50.3256 15.349 49.6899 15.4557 49.0576L17.7666 35.3631L7.992 25.6789C7.53898 25.23 7.38364 24.574 7.58957 23.9794C7.79551 23.3847 8.32814 22.9513 8.96941 22.8566L22.4076 20.8719L28.4332 8.46219C28.7184 7.87497 29.3289 7.5 30 7.5ZM30 13.1107L25.1487 23.1018C24.9035 23.6069 24.4139 23.9605 23.8434 24.0448L12.8219 25.6726L20.8542 33.6307C21.2378 34.0108 21.412 34.5444 21.3236 35.0685L19.4459 46.1958L29.1627 41.0036C29.6837 40.7251 30.3163 40.7251 30.8373 41.0036L40.5541 46.1958L38.6764 35.0685C38.588 34.5444 38.7622 34.0108 39.1458 33.6307L47.1781 25.6726L36.1566 24.0448C35.5861 23.9605 35.0965 23.6069 34.8513 23.1018L30 13.1107Z" fill="#15765B"/>
</svg>
