<svg width="60" height="60" viewBox="0 0 60 60" fill="none" xmlns="http://www.w3.org/2000/svg">
<path fill-rule="evenodd" clip-rule="evenodd" d="M30.4998 8L51.9998 18.75V40.6404L30.4998 51.3904L8.99983 40.6404V18.75L20.9225 12.7887C20.9331 12.7832 20.9439 12.7778 20.9546 12.7726L30.4998 8ZM21.6793 16.1084L14.3518 19.7721L30.4998 27.8462L37.8274 24.1824L21.6793 16.1084ZM41.5255 22.3333L25.3774 14.2593L30.4998 11.6981L46.6479 19.7721L41.5255 22.3333ZM39.8716 26.8584V31.9003C39.8716 32.8137 40.6121 33.5542 41.5255 33.5542C42.4389 33.5542 43.1793 32.8137 43.1793 31.9003V25.2045L48.6921 22.4481V38.5962L32.1537 46.8654V30.7173L39.8716 26.8584ZM28.846 30.7173L12.3075 22.4481V38.5962L28.846 46.8654V30.7173Z" fill="#15765B"/>
</svg>
