<svg width="60" height="60" viewBox="0 0 60 60" fill="none" xmlns="http://www.w3.org/2000/svg">
<path fill-rule="evenodd" clip-rule="evenodd" d="M28.5199 8.79902C26.7931 8.24741 24.6102 7.56314 22.4769 8.36997C20.3438 9.17674 19.1487 11.1339 18.1995 12.7319L18.1945 12.7406C17.7644 13.4927 17.2451 14.1901 16.6479 14.8176C16.0047 15.3436 15.3001 15.7898 14.5496 16.1465C12.5879 16.9234 10.9439 18.3369 9.88162 20.1604L9.86508 20.1888L9.85168 20.2188C8.90026 22.3494 9.44233 24.5763 9.87025 26.3342L9.88919 26.412L9.89234 26.425L9.89606 26.4378C10.129 27.2408 10.264 28.0689 10.2983 28.9043C10.2243 29.7858 10.0427 30.6549 9.75782 31.4925L9.7547 31.5022C9.1968 33.2365 8.58178 35.4327 9.38678 37.5476C10.1878 39.6519 12.1249 40.8474 13.6505 41.7889L13.689 41.8127L13.6999 41.8188C14.4563 42.244 15.1564 42.7624 15.7838 43.3618C16.3098 44.0106 16.7549 44.721 17.1093 45.4774L17.1145 45.4885L17.1232 45.5051C17.9617 47.1222 19.0353 49.1928 21.185 50.1588C23.308 51.1128 25.5518 50.5667 27.3107 50.1386L27.3107 50.1386L27.3881 50.1198L27.3967 50.1174C28.2052 49.8956 29.0348 49.7602 29.8717 49.7134C30.7436 49.7999 31.6018 49.9924 32.4271 50.2868L32.43 50.2879C33.6933 50.7312 35.014 50.9893 36.3512 51.0542L36.3623 51.0548L36.3733 51.0549C37.0945 51.0638 37.8112 50.939 38.487 50.6867L38.4906 50.6853C40.595 49.8843 41.7904 47.9473 42.732 46.4216L42.7573 46.3806L42.7647 46.3671C43.1873 45.5981 43.7013 44.883 44.2955 44.2376C44.9501 43.7148 45.6636 43.2704 46.4216 42.9134L46.4337 42.9077L46.4933 42.8764C48.1012 42.0309 50.1446 40.9564 51.1019 38.8261L51.1025 38.8248C52.0539 36.6941 51.5118 34.4673 51.0839 32.7094L51.0618 32.6186L51.0581 32.6058C50.8255 31.8042 50.6906 30.9775 50.656 30.1437C50.7423 29.2703 50.935 28.4107 51.2299 27.584L51.2353 27.5689L51.2631 27.4758C51.7726 25.7706 52.4227 23.595 51.6284 21.5082C50.8274 19.4039 48.8903 18.2084 47.3647 17.2669L47.323 17.2412L47.3088 17.2334C46.537 16.8118 45.822 16.2938 45.1809 15.6919C44.6591 15.048 44.2169 14.3434 43.8641 13.5934C43.0767 11.643 41.6586 10.0122 39.836 8.96156L39.8094 8.94621L39.7814 8.93361C37.679 7.98885 35.4563 8.51542 33.7082 8.92958L33.5907 8.95741L33.5767 8.96072L33.5628 8.96468C32.7584 9.19542 31.9305 9.33443 31.0949 9.3791C30.223 9.29386 29.3649 9.10133 28.54 8.80584L28.53 8.80226L28.5199 8.79902ZM22.9687 13.2626C23.3222 12.8194 23.6377 12.5433 23.9335 12.4142C25.035 12.2411 26.1635 12.3865 27.1858 12.8338L27.2053 12.8423L27.2254 12.8495C28.4254 13.2777 29.6761 13.5475 30.9459 13.6522L30.9764 13.6547L31.0071 13.6542C32.2381 13.6318 33.4597 13.4333 34.6344 13.0646L34.6516 13.0592L34.6684 13.0528C35.7376 12.6466 36.9012 12.5611 38.0169 12.8053C38.9374 13.4818 39.6428 14.4112 40.0466 15.4815L40.0554 15.5047L40.066 15.5271C40.5878 16.6303 41.2476 17.6629 42.0295 18.5999L42.0505 18.6251L42.0741 18.6479C42.9776 19.5206 43.9877 20.2757 45.0805 20.8952C45.7138 21.2886 46.2871 21.6455 46.7484 22.0134C47.1904 22.3659 47.4662 22.6806 47.5958 22.9757C47.7592 24.0876 47.6023 25.2236 47.1427 26.2502L47.132 26.2742L47.1234 26.299C46.7079 27.4926 46.4507 28.7356 46.3584 29.9962L46.3561 30.0273L46.3571 30.0585C46.3924 31.274 46.5855 32.4798 46.9315 33.6456L46.9386 33.6694L46.9475 33.6925C47.3609 34.7589 47.4501 35.9227 47.2055 37.0381C46.5325 37.9607 45.603 38.6662 44.5315 39.0662L44.5058 39.0758L44.481 39.0877C43.3764 39.6175 42.3438 40.2859 41.4082 41.0767L41.3846 41.0966L41.3632 41.1188C40.4904 42.0223 39.7353 43.0324 39.1159 44.1252L39.0984 44.1533L39.0984 44.1534C38.7111 44.7767 38.3597 45.3424 37.9971 45.7984C37.6431 46.2436 37.3298 46.5163 37.0389 46.64C35.9258 46.8043 34.7885 46.6475 33.7608 46.1874L33.7369 46.1767L33.7121 46.1681C32.5184 45.7526 31.2754 45.4954 30.0149 45.4031L29.9927 45.4015H29.76L29.745 45.4022C28.5925 45.459 27.4507 45.6514 26.3433 45.9756L26.3197 45.9825L26.2968 45.9912C25.2283 46.3996 24.0652 46.4889 22.9484 46.2496C22.0284 45.5732 21.3234 44.6442 20.9197 43.5742L20.911 43.551L20.9004 43.5287C20.3785 42.4254 19.7187 41.3929 18.9368 40.4558L18.9158 40.4307L18.8922 40.4079C17.9888 39.5351 16.9786 38.78 15.8858 38.1606C15.2526 37.7671 14.6792 37.4103 14.2179 37.0423C13.7747 36.6889 13.4986 36.3734 13.3695 36.0776C13.1964 34.9761 13.3418 33.8476 13.7891 32.8252L13.7976 32.8057L13.8048 32.7857C14.233 31.5857 14.5028 30.335 14.6075 29.0652L14.6102 29.0328L14.6094 29.0004C14.5798 27.7724 14.3818 26.5542 14.0209 25.3801L14.0151 25.3612L14.0081 25.3427C13.6019 24.2734 13.5164 23.1099 13.7606 21.9942C14.4371 21.0737 15.3665 20.3682 16.4368 19.9644L16.4615 19.9551L16.4854 19.9437C17.59 19.4139 18.6226 18.7455 19.5582 17.9546L19.5809 17.9354L19.6017 17.914C20.4731 17.0181 21.2283 16.0161 21.8497 14.9318C22.2435 14.298 22.6006 13.7243 22.9687 13.2626Z" fill="white"/>
<path d="M28.8446 34.5879C28.6837 34.5898 28.5239 34.5599 28.3746 34.4998C28.2253 34.4397 28.0893 34.3507 27.9746 34.2379L24.3746 30.7079C24.2577 30.5936 24.1645 30.4575 24.1002 30.3072C24.036 30.1569 24.0019 29.9955 24.0001 29.832C23.9982 29.6686 24.0286 29.5064 24.0894 29.3547C24.1502 29.203 24.2403 29.0648 24.3546 28.9479C24.4688 28.831 24.605 28.7378 24.7553 28.6735C24.9056 28.6093 25.067 28.5752 25.2304 28.5734C25.3939 28.5715 25.5561 28.6019 25.7078 28.6627C25.8595 28.7235 25.9977 28.8136 26.1146 28.9279L28.8546 31.6079L35.3846 25.3879C35.5014 25.2652 35.642 25.1676 35.7977 25.1009C35.9534 25.0342 36.121 24.9999 36.2904 25C36.4598 25.0001 36.6274 25.0346 36.7831 25.1015C36.9387 25.1683 37.0791 25.2661 37.1958 25.3889C37.3125 25.5117 37.403 25.657 37.4619 25.8158C37.5207 25.9746 37.5467 26.1438 37.5381 26.313C37.5296 26.4822 37.4868 26.6478 37.4122 26.8C37.3377 26.9521 37.233 27.0875 37.1046 27.1979L29.7046 34.1979C29.594 34.3163 29.4611 34.4118 29.3135 34.4787C29.1659 34.5456 29.0066 34.5827 28.8446 34.5879Z" fill="white" stroke="white"/>
</svg>
