<svg width="20" height="20" viewBox="0 0 20 20" fill="none" xmlns="http://www.w3.org/2000/svg">
<path fill-rule="evenodd" clip-rule="evenodd" d="M6.21631 3.93368L3.06425 5.50971L10.2749 9.41548L13.427 7.83945L6.21631 3.93368ZM2 6.63916V14.0161C2 14.3002 2.1605 14.5598 2.41459 14.6869L9.51249 18.2358C9.51154 18.2203 9.51105 18.2047 9.51105 18.1889V10.7076L2 6.63916ZM11.0096 18.2355L18.1068 14.6869C18.3609 14.5598 18.5214 14.3002 18.5214 14.0161V6.96927L15.6001 8.42993V10.6782C15.6001 11.0924 15.2643 11.4282 14.8501 11.4282C14.4359 11.4282 14.1001 11.0924 14.1001 10.6782V9.17993L11.011 10.7245V18.1889C11.011 18.2046 11.0106 18.2201 11.0096 18.2355ZM17.7718 5.66702L10.5961 2.07918C10.385 1.97361 10.1365 1.97361 9.9253 2.07918L7.85399 3.11484L15.0646 7.02061L17.7718 5.66702Z" fill="#15765B"/>
</svg>
