<svg width="40" height="40" viewBox="0 0 40 40" fill="none" xmlns="http://www.w3.org/2000/svg">
<path d="M13.0866 5.18519C13.0866 4.87085 12.9617 4.5694 12.7394 4.34713C12.5172 4.12487 12.2157 4 11.9014 4C11.5871 4 11.2856 4.12487 11.0633 4.34713C10.8411 4.5694 10.7162 4.87085 10.7162 5.18519V7.68197C8.44065 7.8637 6.9489 8.30933 5.85221 9.4076C4.75394 10.5043 4.30831 11.9976 4.125 14.2716H35.4803C35.2969 11.996 34.8513 10.5043 33.753 9.4076C32.6564 8.30933 31.163 7.8637 28.889 7.68039V5.18519C28.889 4.87085 28.7642 4.5694 28.5419 4.34713C28.3197 4.12487 28.0182 4 27.7039 4C27.3895 4 27.0881 4.12487 26.8658 4.34713C26.6435 4.5694 26.5187 4.87085 26.5187 5.18519V7.5761C25.4678 7.55556 24.2889 7.55556 22.9631 7.55556H16.6421C15.3163 7.55556 14.1374 7.55556 13.0866 7.5761V5.18519Z" fill="#15765B"/>
<path fill-rule="evenodd" clip-rule="evenodd" d="M4 20.1976C4 18.8718 4 17.693 4.02054 16.6421H35.5844C35.6049 17.693 35.6049 18.8718 35.6049 20.1976V23.3581C35.6049 29.3173 35.6049 32.2976 33.7529 34.1481C31.9024 36.0001 28.9221 36.0001 22.963 36.0001H16.642C10.6829 36.0001 7.70252 36.0001 5.85205 34.1481C4 32.2976 4 29.3173 4 23.3581V20.1976ZM27.7037 23.3581C28.1228 23.3581 28.5248 23.1916 28.8211 22.8953C29.1175 22.5989 29.284 22.197 29.284 21.7779C29.284 21.3588 29.1175 20.9568 28.8211 20.6605C28.5248 20.3641 28.1228 20.1976 27.7037 20.1976C27.2846 20.1976 26.8827 20.3641 26.5863 20.6605C26.2899 20.9568 26.1235 21.3588 26.1235 21.7779C26.1235 22.197 26.2899 22.5989 26.5863 22.8953C26.8827 23.1916 27.2846 23.3581 27.7037 23.3581ZM27.7037 29.6791C28.1228 29.6791 28.5248 29.5126 28.8211 29.2163C29.1175 28.9199 29.284 28.518 29.284 28.0989C29.284 27.6798 29.1175 27.2778 28.8211 26.9815C28.5248 26.6851 28.1228 26.5186 27.7037 26.5186C27.2846 26.5186 26.8827 26.6851 26.5863 26.9815C26.2899 27.2778 26.1235 27.6798 26.1235 28.0989C26.1235 28.518 26.2899 28.9199 26.5863 29.2163C26.8827 29.5126 27.2846 29.6791 27.7037 29.6791ZM21.3827 21.7779C21.3827 22.197 21.2162 22.5989 20.9199 22.8953C20.6235 23.1916 20.2216 23.3581 19.8025 23.3581C19.3834 23.3581 18.9814 23.1916 18.6851 22.8953C18.3887 22.5989 18.2222 22.197 18.2222 21.7779C18.2222 21.3588 18.3887 20.9568 18.6851 20.6605C18.9814 20.3641 19.3834 20.1976 19.8025 20.1976C20.2216 20.1976 20.6235 20.3641 20.9199 20.6605C21.2162 20.9568 21.3827 21.3588 21.3827 21.7779ZM21.3827 28.0989C21.3827 28.518 21.2162 28.9199 20.9199 29.2163C20.6235 29.5126 20.2216 29.6791 19.8025 29.6791C19.3834 29.6791 18.9814 29.5126 18.6851 29.2163C18.3887 28.9199 18.2222 28.518 18.2222 28.0989C18.2222 27.6798 18.3887 27.2778 18.6851 26.9815C18.9814 26.6851 19.3834 26.5186 19.8025 26.5186C20.2216 26.5186 20.6235 26.6851 20.9199 26.9815C21.2162 27.2778 21.3827 27.6798 21.3827 28.0989ZM11.9012 23.3581C12.3203 23.3581 12.7223 23.1916 13.0186 22.8953C13.315 22.5989 13.4815 22.197 13.4815 21.7779C13.4815 21.3588 13.315 20.9568 13.0186 20.6605C12.7223 20.3641 12.3203 20.1976 11.9012 20.1976C11.4821 20.1976 11.0802 20.3641 10.7838 20.6605C10.4875 20.9568 10.321 21.3588 10.321 21.7779C10.321 22.197 10.4875 22.5989 10.7838 22.8953C11.0802 23.1916 11.4821 23.3581 11.9012 23.3581ZM11.9012 29.6791C12.3203 29.6791 12.7223 29.5126 13.0186 29.2163C13.315 28.9199 13.4815 28.518 13.4815 28.0989C13.4815 27.6798 13.315 27.2778 13.0186 26.9815C12.7223 26.6851 12.3203 26.5186 11.9012 26.5186C11.4821 26.5186 11.0802 26.6851 10.7838 26.9815C10.4875 27.2778 10.321 27.6798 10.321 28.0989C10.321 28.518 10.4875 28.9199 10.7838 29.2163C11.0802 29.5126 11.4821 29.6791 11.9012 29.6791Z" fill="#15765B"/>
</svg>
