<svg width="40" height="40" viewBox="0 0 40 40" fill="none" xmlns="http://www.w3.org/2000/svg">
<path d="M6.87506 4C6.37777 4 5.90084 4.19832 5.54919 4.55133C5.19755 4.90434 5 5.38312 5 5.88235C5 6.38158 5.19755 6.86037 5.54919 7.21338C5.90084 7.56639 6.37777 7.76471 6.87506 7.76471H9.16264L9.73453 10.0649C9.74021 10.0914 9.74647 10.1178 9.75328 10.144L12.2996 20.3652L10.6252 22.0442C8.26261 24.416 9.93516 28.4706 13.2765 28.4706H29.3758C29.8731 28.4706 30.35 28.2723 30.7017 27.9193C31.0533 27.5662 31.2509 27.0875 31.2509 26.5882C31.2509 26.089 31.0533 25.6102 30.7017 25.2572C30.35 24.9042 29.8731 24.7059 29.3758 24.7059H13.2765L15.1516 22.8235H27.5008C27.8489 22.8233 28.1901 22.7259 28.4861 22.542C28.7822 22.3582 29.0214 22.0952 29.1771 21.7826L34.8022 10.4885C34.9451 10.2016 35.0125 9.88278 34.9981 9.56236C34.9837 9.24195 34.888 8.93054 34.7201 8.65768C34.5522 8.38482 34.3176 8.15957 34.0386 8.00328C33.7596 7.847 33.4454 7.76488 33.1259 7.76471H13.0253L12.444 5.42494C12.3424 5.01789 12.1083 4.65658 11.7787 4.39841C11.4492 4.14024 11.0432 4.00001 10.6252 4H6.87506ZM31.2509 33.1765C31.2509 33.9253 30.9545 34.6435 30.4271 35.173C29.8996 35.7025 29.1842 36 28.4383 36C27.6923 36 26.9769 35.7025 26.4495 35.173C25.922 34.6435 25.6257 33.9253 25.6257 33.1765C25.6257 32.4276 25.922 31.7094 26.4495 31.1799C26.9769 30.6504 27.6923 30.3529 28.4383 30.3529C29.1842 30.3529 29.8996 30.6504 30.4271 31.1799C30.9545 31.7094 31.2509 32.4276 31.2509 33.1765ZM13.4378 36C14.1837 36 14.8991 35.7025 15.4266 35.173C15.9541 34.6435 16.2504 33.9253 16.2504 33.1765C16.2504 32.4276 15.9541 31.7094 15.4266 31.1799C14.8991 30.6504 14.1837 30.3529 13.4378 30.3529C12.6918 30.3529 11.9764 30.6504 11.449 31.1799C10.9215 31.7094 10.6252 32.4276 10.6252 33.1765C10.6252 33.9253 10.9215 34.6435 11.449 35.173C11.9764 35.7025 12.6918 36 13.4378 36Z" fill="#15765B"/>
</svg>
