<svg width="24" height="24" viewBox="0 0 24 24" fill="none" xmlns="http://www.w3.org/2000/svg">
<path fill-rule="evenodd" clip-rule="evenodd" d="M2 2.75C2 2.33579 2.33579 2 2.75 2H5.25C5.59415 2 5.89414 2.23422 5.97761 2.5681L6.33558 4H20.75C20.981 4 21.199 4.1064 21.3412 4.28844C21.4833 4.47048 21.5336 4.70785 21.4776 4.9319L19.4776 12.9319C19.3941 13.2658 19.0942 13.5 18.75 13.5H7.25C6.83579 13.5 6.5 13.8358 6.5 14.25C6.5 14.6642 6.83579 15 7.25 15H18.75C19.1642 15 19.5 15.3358 19.5 15.75C19.5 16.1642 19.1642 16.5 18.75 16.5H7.25C6.00736 16.5 5 15.4926 5 14.25C5 13.1612 5.77331 12.2531 6.80064 12.0449L4.66442 3.5H2.75C2.33579 3.5 2 3.16421 2 2.75ZM8.33558 12L6.71058 5.5H19.7894L18.1644 12H8.33558ZM7.75 19.5C7.61193 19.5 7.5 19.6119 7.5 19.75C7.5 19.8881 7.61193 20 7.75 20C7.88807 20 8 19.8881 8 19.75C8 19.6119 7.88807 19.5 7.75 19.5ZM6 19.75C6 18.7835 6.7835 18 7.75 18C8.7165 18 9.5 18.7835 9.5 19.75C9.5 20.7165 8.7165 21.5 7.75 21.5C6.7835 21.5 6 20.7165 6 19.75ZM17.75 19.5C17.6119 19.5 17.5 19.6119 17.5 19.75C17.5 19.8881 17.6119 20 17.75 20C17.8881 20 18 19.8881 18 19.75C18 19.6119 17.8881 19.5 17.75 19.5ZM16 19.75C16 18.7835 16.7835 18 17.75 18C18.7165 18 19.5 18.7835 19.5 19.75C19.5 20.7165 18.7165 21.5 17.75 21.5C16.7835 21.5 16 20.7165 16 19.75Z" fill="#B5B5B5"/>
</svg>
