<svg width="24" height="24" viewBox="0 0 24 24" fill="none" xmlns="http://www.w3.org/2000/svg">
<path fill-rule="evenodd" clip-rule="evenodd" d="M2.25 3C2.25 2.58579 2.58579 2.25 3 2.25H5.5C5.84415 2.25 6.14414 2.48422 6.22761 2.8181L6.58558 4.25H21C21.231 4.25 21.449 4.3564 21.5912 4.53844C21.7333 4.72048 21.7836 4.95785 21.7276 5.1819L19.7276 13.1819C19.6441 13.5158 19.3442 13.75 19 13.75H7.5C7.08579 13.75 6.75 14.0858 6.75 14.5C6.75 14.9142 7.08579 15.25 7.5 15.25H19C19.4142 15.25 19.75 15.5858 19.75 16C19.75 16.4142 19.4142 16.75 19 16.75H7.5C6.25736 16.75 5.25 15.7426 5.25 14.5C5.25 13.4112 6.02331 12.5031 7.05064 12.2949L4.91442 3.75H3C2.58579 3.75 2.25 3.41421 2.25 3ZM8.58558 12.25L6.96058 5.75H20.0394L18.4144 12.25H8.58558ZM8 19.75C7.86193 19.75 7.75 19.8619 7.75 20C7.75 20.1381 7.86193 20.25 8 20.25C8.13807 20.25 8.25 20.1381 8.25 20C8.25 19.8619 8.13807 19.75 8 19.75ZM6.25 20C6.25 19.0335 7.0335 18.25 8 18.25C8.9665 18.25 9.75 19.0335 9.75 20C9.75 20.9665 8.9665 21.75 8 21.75C7.0335 21.75 6.25 20.9665 6.25 20ZM18 19.75C17.8619 19.75 17.75 19.8619 17.75 20C17.75 20.1381 17.8619 20.25 18 20.25C18.1381 20.25 18.25 20.1381 18.25 20C18.25 19.8619 18.1381 19.75 18 19.75ZM16.25 20C16.25 19.0335 17.0335 18.25 18 18.25C18.9665 18.25 19.75 19.0335 19.75 20C19.75 20.9665 18.9665 21.75 18 21.75C17.0335 21.75 16.25 20.9665 16.25 20Z" fill="#222222"/>
</svg>
