<svg width="16.000000" height="16.000000" viewBox="0 0 16 16" fill="none" xmlns="http://www.w3.org/2000/svg" xmlns:xlink="http://www.w3.org/1999/xlink">
	<desc>
			Created with Pixso.
	</desc>
	<defs/>
	<rect width="16.000000" height="16.000000" fill="#FFFFFF" fill-opacity="0"/>
	<path d="M1.5 8C1.5 7.72363 1.72363 7.5 2 7.5L4.6665 7.5C4.94287 7.5 5.1665 7.72363 5.1665 8L5.1665 13.333C5.1665 13.6094 4.94287 13.833 4.6665 13.833L2 13.833C1.72363 13.833 1.5 13.6094 1.5 13.333L1.5 8ZM2.5 8.5L2.5 12.833L4.1665 12.833L4.1665 8.5L2.5 8.5Z" fill="#15765B" fill-opacity="1.000000" fill-rule="evenodd"/>
	<path d="M6.1665 2.66699C6.1665 2.39062 6.39014 2.16699 6.6665 2.16699L9.33301 2.16699C9.60938 2.16699 9.83301 2.39062 9.83301 2.66699L9.83301 13.334C9.83301 13.6094 9.60938 13.834 9.33301 13.834L6.6665 13.834C6.39014 13.834 6.1665 13.6094 6.1665 13.334L6.1665 2.66699ZM7.1665 3.16699L7.1665 12.834L8.83301 12.834L8.83301 3.16699L7.1665 3.16699Z" fill="#15765B" fill-opacity="1.000000" fill-rule="evenodd"/>
	<path d="M10.8335 10.667C10.8335 10.3906 11.0571 10.167 11.3335 10.167L14 10.167C14.2764 10.167 14.5 10.3906 14.5 10.667L14.5 13.334C14.5 13.6094 14.2764 13.834 14 13.834L11.3335 13.834C11.0571 13.834 10.8335 13.6094 10.8335 13.334L10.8335 10.667ZM11.8335 11.167L11.8335 12.834L13.5 12.834L13.5 11.167L11.8335 11.167Z" fill="#15765B" fill-opacity="1.000000" fill-rule="evenodd"/>
</svg>
