<svg width="16" height="16" viewBox="0 0 16 16" fill="none" xmlns="http://www.w3.org/2000/svg">
<path fill-rule="evenodd" clip-rule="evenodd" d="M6.16667 2.70104C6.16667 2.44331 6.42933 2.23438 6.75333 2.23438H9.24667C9.57067 2.23438 9.83333 2.44331 9.83333 2.70104V13.4344C9.83333 13.6921 9.57067 13.901 9.24667 13.901H6.75333C6.42933 13.901 6.16667 13.6921 6.16667 13.4344V2.70104ZM1.5 8.07438C1.5 7.79455 1.76266 7.56771 2.08667 7.56771H4.58C4.90401 7.56771 5.16667 7.79455 5.16667 8.07438V13.3944C5.16667 13.6742 4.90401 13.901 4.58 13.901H2.08667C1.76266 13.901 1.5 13.6742 1.5 13.3944V8.07438ZM11.42 10.1673C11.096 10.1673 10.8333 10.43 10.8333 10.754V13.2473C10.8333 13.5713 11.096 13.834 11.42 13.834H13.9133C14.2373 13.834 14.5 13.5713 14.5 13.2473V10.754C14.5 10.43 14.2373 10.1673 13.9133 10.1673H11.42Z" fill="#15765B"/>
</svg>
