<svg width="24" height="24" viewBox="0 0 24 24" fill="none" xmlns="http://www.w3.org/2000/svg">
<path fill-rule="evenodd" clip-rule="evenodd" d="M2.25 12C2.25 11.5858 2.58579 11.25 3 11.25H7C7.41421 11.25 7.75 11.5858 7.75 12V20C7.75 20.4142 7.41421 20.75 7 20.75H3C2.58579 20.75 2.25 20.4142 2.25 20V12ZM3.75 12.75V19.25H6.25V12.75H3.75Z" fill="#222222"/>
<path fill-rule="evenodd" clip-rule="evenodd" d="M9.25 4C9.25 3.58579 9.58579 3.25 10 3.25H14C14.4142 3.25 14.75 3.58579 14.75 4V20C14.75 20.4142 14.4142 20.75 14 20.75H10C9.58579 20.75 9.25 20.4142 9.25 20V4ZM10.75 4.75V19.25H13.25V4.75H10.75Z" fill="#222222"/>
<path fill-rule="evenodd" clip-rule="evenodd" d="M16.25 16C16.25 15.5858 16.5858 15.25 17 15.25H21C21.4142 15.25 21.75 15.5858 21.75 16V20C21.75 20.4142 21.4142 20.75 21 20.75H17C16.5858 20.75 16.25 20.4142 16.25 20V16ZM17.75 16.75V19.25H20.25V16.75H17.75Z" fill="#222222"/>
</svg>
