<svg width="16" height="16" viewBox="0 0 16 16" fill="none" xmlns="http://www.w3.org/2000/svg">
<path d="M13.6667 8.98926C13.4899 8.98926 13.3203 9.05949 13.1953 9.18452C13.0702 9.30954 13 9.47911 13 9.65592V12.3226C13 12.4994 12.9298 12.669 12.8047 12.794C12.6797 12.919 12.5101 12.9893 12.3333 12.9893H3C2.82319 12.9893 2.65362 12.919 2.5286 12.794C2.40357 12.669 2.33333 12.4994 2.33333 12.3226V9.65592C2.33333 9.47911 2.2631 9.30954 2.13807 9.18452C2.01305 9.05949 1.84348 8.98926 1.66667 8.98926C1.48986 8.98926 1.32029 9.05949 1.19526 9.18452C1.07024 9.30954 1 9.47911 1 9.65592V12.3226C1 12.853 1.21071 13.3617 1.58579 13.7368C1.96086 14.1119 2.46957 14.3226 3 14.3226H12.3333C12.8638 14.3226 13.3725 14.1119 13.7475 13.7368C14.1226 13.3617 14.3333 12.853 14.3333 12.3226V9.65592C14.3333 9.47911 14.2631 9.30954 14.1381 9.18452C14.013 9.05949 13.8435 8.98926 13.6667 8.98926ZM7.19333 10.1293C7.25674 10.19 7.3315 10.2375 7.41333 10.2693C7.49313 10.3045 7.57942 10.3227 7.66667 10.3227C7.75391 10.3227 7.8402 10.3045 7.92 10.2693C8.00183 10.2375 8.0766 10.19 8.14 10.1293L10.8067 7.46259C10.9322 7.33706 11.0027 7.16679 11.0027 6.98926C11.0027 6.81172 10.9322 6.64146 10.8067 6.51592C10.6811 6.39039 10.5109 6.31986 10.3333 6.31986C10.1558 6.31986 9.98554 6.39039 9.86 6.51592L8.33333 8.04926V1.65592C8.33333 1.47911 8.26309 1.30954 8.13807 1.18452C8.01305 1.0595 7.84348 0.989258 7.66667 0.989258C7.48986 0.989258 7.32029 1.0595 7.19526 1.18452C7.07024 1.30954 7 1.47911 7 1.65592V8.04926L5.47333 6.51592C5.41117 6.45376 5.33738 6.40446 5.25617 6.37082C5.17495 6.33718 5.08791 6.31986 5 6.31986C4.91209 6.31986 4.82505 6.33718 4.74383 6.37082C4.66262 6.40446 4.58883 6.45376 4.52667 6.51592C4.46451 6.57808 4.4152 6.65188 4.38156 6.73309C4.34792 6.81431 4.33061 6.90135 4.33061 6.98926C4.33061 7.07716 4.34792 7.16421 4.38156 7.24542C4.4152 7.32664 4.46451 7.40043 4.52667 7.46259L7.19333 10.1293Z" fill="#15765B"/>
</svg>
