<svg width="16.000000" height="16.000000" viewBox="0 0 16 16" fill="none" xmlns="http://www.w3.org/2000/svg" xmlns:xlink="http://www.w3.org/1999/xlink">
	<desc>
			Created with Pixso.
	</desc>
	<defs/>
	<rect id="icon 24" width="16.000000" height="16.000000" fill="#FFFFFF" fill-opacity="0"/>
	<path id="Vector (Stroke)" d="M4.73389 3.02539C3.32324 3.02539 2.16992 4.19043 2.16992 5.69434C2.16992 7.63965 3.56592 9.53418 5.08984 11.0029C5.8374 11.7236 6.5874 12.3145 7.15137 12.7246C7.42334 12.9229 7.65088 13.0791 7.81299 13.1855C7.97412 13.0801 8.20117 12.9268 8.47266 12.7314C9.03564 12.3242 9.78516 11.7393 10.5327 11.0215C12.0542 9.56152 13.4517 7.66309 13.4517 5.68555C13.4517 4.19141 12.2988 3.02539 10.8877 3.02539C10.2358 3.02539 9.59082 3.43848 9.06152 3.94238C8.80664 4.18457 8.59912 4.42871 8.45508 4.61328C8.38379 4.70508 8.32861 4.78125 8.29199 4.83301C8.27393 4.8584 8.26025 4.87793 8.25195 4.89062L8.24268 4.9043L8.24121 4.90625C8.14697 5.05273 7.98486 5.14062 7.81055 5.14062C7.63672 5.14062 7.4751 5.05273 7.38037 4.90723L7.37842 4.9043L7.36963 4.89062C7.36084 4.87793 7.34766 4.8584 7.3291 4.83301C7.29297 4.78125 7.23779 4.70508 7.16602 4.61328C7.02246 4.42871 6.81445 4.18457 6.55957 3.94238C6.03076 3.43848 5.38525 3.02539 4.73389 3.02539ZM7.81055 3.7793C7.66309 3.60352 7.47998 3.40137 7.26709 3.19922C6.68457 2.64453 5.7915 2 4.73389 2C2.72559 2 1.14404 3.65625 1.14404 5.69434C1.14404 8.08887 2.82471 10.2441 4.37793 11.7412C5.16895 12.5029 5.95752 13.124 6.54736 13.5537C6.84277 13.7695 7.08984 13.9375 7.26367 14.0527C7.35059 14.1104 7.41943 14.1543 7.46729 14.1846C7.49072 14.1992 7.50928 14.2109 7.52246 14.2197L7.53711 14.2285L7.54297 14.2324C7.54297 14.2324 7.54346 14.2324 7.81104 13.7949L7.54297 14.2324C7.70605 14.332 7.91162 14.333 8.07568 14.2344L7.81104 13.7949C8.07568 14.2344 8.0752 14.2344 8.07568 14.2344L8.07764 14.2334L8.08203 14.2305L8.09668 14.2207C8.10986 14.2129 8.12842 14.2021 8.15234 14.1865C8.19971 14.1572 8.26904 14.1133 8.35596 14.0566C8.52979 13.9424 8.77686 13.7764 9.07275 13.5625C9.66309 13.1367 10.4517 12.5205 11.2427 11.7617C12.7983 10.2686 14.4775 8.11133 14.4775 5.68555C14.4775 3.65527 12.895 2 10.8877 2C9.83008 2 8.93652 2.64453 8.35449 3.19922C8.1416 3.40137 7.9585 3.60352 7.81055 3.7793Z" fill="#15765B" fill-opacity="1.000000" fill-rule="evenodd"/>
</svg>
