<svg width="25" height="24" viewBox="0 0 25 24" fill="none" xmlns="http://www.w3.org/2000/svg">
<path fill-rule="evenodd" clip-rule="evenodd" d="M7.60044 4.53846C5.4847 4.53846 3.75428 6.28553 3.75428 8.54223C3.75428 11.4595 5.84882 14.3018 8.13439 16.5043C9.25615 17.5852 10.381 18.4712 11.2268 19.0875C11.6348 19.3847 11.9762 19.6181 12.2189 19.779C12.4612 19.6202 12.8017 19.3901 13.2084 19.0967C14.0536 18.4869 15.1777 17.6085 16.2987 16.5324C18.5808 14.3416 20.6774 11.4953 20.6774 8.52885C20.6774 6.28697 18.9483 4.53846 16.8312 4.53846C15.8537 4.53846 14.8859 5.15755 14.0923 5.91293C13.7099 6.27701 13.3985 6.64367 13.1826 6.92005C13.0751 7.05762 12.9926 7.17124 12.9379 7.24885C12.9106 7.28762 12.8904 7.31729 12.8775 7.33633L12.8639 7.35671L12.8618 7.35992C12.7201 7.57895 12.4767 7.71154 12.2158 7.71154C11.9551 7.71154 11.7121 7.57947 11.5703 7.36073C11.5702 7.36057 11.5705 7.3609 11.5703 7.36073L11.5677 7.35671L11.5541 7.33633C11.5413 7.31729 11.521 7.28762 11.4937 7.24885C11.4391 7.17124 11.3565 7.05762 11.249 6.92005C11.0331 6.64367 10.7218 6.27701 10.3393 5.91293C9.54577 5.15755 8.57791 4.53846 7.60044 4.53846ZM12.2158 5.66967C11.9943 5.40563 11.7196 5.10277 11.4 4.79861C10.5269 3.96745 9.18706 3 7.60044 3C4.58797 3 2.21582 5.4837 2.21582 8.54223C2.21582 12.134 4.73686 15.3668 7.06686 17.6121C8.2529 18.755 9.4358 19.686 10.3209 20.3309C10.7641 20.6538 11.1343 20.9062 11.3952 21.0788C11.5257 21.1651 11.6289 21.2315 11.7004 21.2769C11.7361 21.2995 11.7639 21.317 11.7832 21.329L11.8057 21.3429L11.814 21.348C11.8143 21.3482 11.8151 21.3487 12.2162 20.6923L11.814 21.348C12.0587 21.4976 12.3674 21.4992 12.6131 21.3513L12.2162 20.6923C12.6131 21.3513 12.6128 21.3514 12.6131 21.3513L12.6161 21.3494L12.6225 21.3456L12.6451 21.3318C12.6644 21.3199 12.6923 21.3027 12.7281 21.2803C12.7996 21.2354 12.903 21.1698 13.0336 21.0845C13.2946 20.914 13.6651 20.6643 14.1085 20.3444C14.994 19.7055 16.1775 18.7814 17.3641 17.6422C19.6972 15.4025 22.2158 12.167 22.2158 8.52885C22.2158 5.48227 19.8423 3 16.8312 3C15.2446 3 13.9047 3.96745 13.0316 4.79861C12.7121 5.10277 12.4373 5.40563 12.2158 5.66967Z" fill="black"/>
</svg>
