<svg width="16" height="16" viewBox="0 0 16 16" fill="none" xmlns="http://www.w3.org/2000/svg">
<path fill-rule="evenodd" clip-rule="evenodd" d="M2.89291 2.94812C2.97983 2.78529 3.1494 2.68359 3.33399 2.68359H12.6673C12.8519 2.68359 13.0215 2.78528 13.1084 2.94809C13.1953 3.11091 13.1855 3.30837 13.0828 3.46175L9.2717 9.15455V13.5874C9.2717 13.7626 9.17996 13.925 9.0299 14.0155L7.48843 14.9451C7.334 15.0382 7.14139 15.041 6.98436 14.9523C6.82733 14.8636 6.73022 14.6973 6.73022 14.5169V9.15395L2.91853 3.4618C2.81583 3.30843 2.80598 3.11095 2.89291 2.94812ZM4.27056 3.68359L7.64568 8.7238C7.7008 8.80611 7.73022 8.90294 7.73022 9.002V13.6315L8.2717 13.305V9.00264C8.2717 8.9036 8.30111 8.80679 8.35621 8.72448L11.7309 3.68359H4.27056Z" fill="#15765B"/>
</svg>
