<svg width="16" height="16" viewBox="0 0 16 16" fill="none" xmlns="http://www.w3.org/2000/svg">
<path fill-rule="evenodd" clip-rule="evenodd" d="M11.6415 9.14407L7.41684 13.9144C7.22156 14.1349 6.8845 14.1553 6.664 13.96L2.67156 10.4239C2.45107 10.2286 2.43063 9.89151 2.62591 9.671L6.85053 4.90071C6.93082 4.81005 7.03958 4.74942 7.15891 4.72878L11.3651 4.00144C11.7019 3.94321 12.0057 4.21234 11.9886 4.55369L11.7749 8.81717C11.7688 8.93812 11.7218 9.05341 11.6415 9.14407ZM6.05205 4.19349C6.29292 3.9215 6.61918 3.7396 6.97717 3.67769L11.1834 2.95035C12.1937 2.77565 13.1052 3.58304 13.0539 4.6071L12.8402 8.87058C12.822 9.23344 12.6808 9.57932 12.4399 9.8513L8.21533 14.6216C7.62947 15.2831 6.6183 15.3444 5.95681 14.7585L1.96438 11.2224C1.30289 10.6365 1.24157 9.62529 1.82743 8.96377L6.05205 4.19349ZM7.61788 7.23842C7.82462 7.42229 7.84313 7.73895 7.6592 7.9457L5.06892 10.8574C4.885 11.0642 4.5683 11.0827 4.36155 10.8989C4.1548 10.715 4.1363 10.3983 4.32022 10.1916L6.91051 7.27984C7.09443 7.07309 7.41113 7.05455 7.61788 7.23842ZM7.44299 10.6487C7.64973 10.8325 7.66824 11.1492 7.48431 11.356L6.67013 12.2712C6.48621 12.4779 6.16951 12.4965 5.96277 12.3126C5.75602 12.1287 5.73752 11.8121 5.92144 11.6053L6.73562 10.6901C6.91954 10.4833 7.23624 10.4648 7.44299 10.6487Z" fill="white"/>
<path d="M10.8333 5.7998C10.8333 5.93241 10.7806 6.05959 10.6869 6.15336C10.5931 6.24713 10.4659 6.2998 10.3333 6.2998C10.2007 6.2998 10.0735 6.24713 9.97974 6.15336C9.88598 6.05959 9.8333 5.93241 9.8333 5.7998C9.8333 5.6672 9.88598 5.54002 9.97974 5.44625C10.0735 5.35248 10.2007 5.2998 10.3333 5.2998C10.4659 5.2998 10.5931 5.35248 10.6869 5.44625C10.7806 5.54002 10.8333 5.6672 10.8333 5.7998Z" fill="white"/>
</svg>
