<svg width="13" height="16" viewBox="0 0 13 16" fill="none" xmlns="http://www.w3.org/2000/svg">
<path d="M10.2107 10.3308C10.0692 11.1208 9.68915 11.8485 9.12157 12.416C8.554 12.9834 7.82619 13.3634 7.03613 13.5046C7.00614 13.5094 6.97582 13.512 6.94545 13.5121C6.80863 13.5121 6.67681 13.4607 6.57615 13.368C6.47549 13.2753 6.41334 13.1482 6.40201 13.0118C6.39068 12.8755 6.43101 12.7399 6.515 12.6319C6.59899 12.5238 6.72051 12.4513 6.85545 12.4287C7.98522 12.2385 8.94386 11.2799 9.13545 10.148C9.15968 10.0054 9.2396 9.87817 9.35762 9.79442C9.47564 9.71067 9.62209 9.67723 9.76477 9.70146C9.90744 9.72569 10.0346 9.80561 10.1184 9.92363C10.2022 10.0416 10.2356 10.1881 10.2114 10.3308H10.2107ZM12.4 9.69396C12.4 11.2853 11.7679 12.8114 10.6426 13.9366C9.51742 15.0618 7.99129 15.694 6.39999 15.694C4.8087 15.694 3.28257 15.0618 2.15735 13.9366C1.03214 12.8114 0.399994 11.2853 0.399994 9.69396C0.399994 7.79032 1.14999 5.84373 2.62681 3.90873C2.67356 3.84746 2.73276 3.79679 2.80051 3.76006C2.86826 3.72334 2.94303 3.70138 3.01988 3.69565C3.09674 3.68991 3.17393 3.70053 3.24639 3.7268C3.31884 3.75307 3.3849 3.79439 3.44022 3.84805L5.08477 5.44419L6.58477 1.32532C6.61474 1.24317 6.66401 1.16943 6.72845 1.11032C6.79289 1.0512 6.87059 1.00845 6.95501 0.985653C7.03944 0.962859 7.1281 0.960697 7.21353 0.979349C7.29897 0.998 7.37866 1.03692 7.4459 1.09282C8.93704 2.33032 12.4 5.64055 12.4 9.69396ZM11.3091 9.69396C11.3091 6.55146 8.86886 3.83578 7.34022 2.44419L5.82181 6.60805C5.79065 6.69357 5.73858 6.76993 5.67035 6.83018C5.60212 6.89042 5.51989 6.93264 5.43117 6.95297C5.34245 6.9733 5.25005 6.97111 5.16239 6.94659C5.07474 6.92207 4.99461 6.87601 4.92931 6.8126L3.13136 5.0685C2.04249 6.6401 1.4909 8.19396 1.4909 9.69396C1.4909 10.9959 2.00811 12.2446 2.92874 13.1652C3.84938 14.0858 5.09802 14.603 6.39999 14.603C7.70197 14.603 8.95061 14.0858 9.87124 13.1652C10.7919 12.2446 11.3091 10.9959 11.3091 9.69396Z" fill="white"/>
</svg>
