<svg width="16" height="15" viewBox="0 0 16 15" fill="none" xmlns="http://www.w3.org/2000/svg">
<path fill-rule="evenodd" clip-rule="evenodd" d="M0.5 5.96056C0.5 2.6681 3.16907 -0.000976562 6.46154 -0.000976562C9.75401 -0.000976562 12.4231 2.6681 12.4231 5.96056C12.4231 7.39903 11.9136 8.71851 11.0653 9.74839L15.331 14.0142C15.5563 14.2395 15.5563 14.6047 15.331 14.83C15.1057 15.0553 14.7404 15.0553 14.5151 14.83L10.2494 10.5643C9.21949 11.4126 7.90001 11.9221 6.46154 11.9221C3.16907 11.9221 0.5 9.25303 0.5 5.96056ZM6.46154 1.15287C3.80632 1.15287 1.65385 3.30535 1.65385 5.96056C1.65385 8.61578 3.80632 10.7683 6.46154 10.7683C9.11675 10.7683 11.2692 8.61578 11.2692 5.96056C11.2692 3.30535 9.11675 1.15287 6.46154 1.15287Z" fill="white"/>
</svg>
