<svg width="20" height="20" viewBox="0 0 20 20" fill="none" xmlns="http://www.w3.org/2000/svg">
<path d="M8.75 17.5V18.75H11.25V17.5V13.75H8.75V17.5Z" fill="#15765B"/>
<path d="M18.7498 6.72527L17.4998 1.72527C17.4656 1.58659 17.3849 1.46382 17.2712 1.3774C17.1575 1.29097 17.0176 1.24611 16.8748 1.25027H3.12485C2.98208 1.24611 2.84219 1.29097 2.72847 1.3774C2.61475 1.46382 2.53407 1.58659 2.49985 1.72527L1.24985 6.72527C1.23443 6.80789 1.23443 6.89265 1.24985 6.97527C1.26502 7.44341 1.38523 7.90216 1.6016 8.31758C1.81797 8.733 2.12495 9.09448 2.49985 9.37527V18.1253C2.49985 18.291 2.5657 18.45 2.68291 18.5672C2.80012 18.6844 2.95909 18.7503 3.12485 18.7503H7.49985V13.1253C7.49985 12.9595 7.5657 12.8005 7.68291 12.6833C7.80012 12.5661 7.95909 12.5003 8.12485 12.5003H11.8748C12.0406 12.5003 12.1996 12.5661 12.3168 12.6833C12.434 12.8005 12.4998 12.9595 12.4998 13.1253V18.7503H16.8748C17.0406 18.7503 17.1996 18.6844 17.3168 18.5672C17.434 18.45 17.4998 18.291 17.4998 18.1253V9.37527C17.8747 9.09448 18.1817 8.733 18.3981 8.31758C18.6145 7.90216 18.7347 7.44341 18.7498 6.97527C18.7653 6.89265 18.7653 6.80789 18.7498 6.72527ZM16.5436 8.51902C16.2628 8.67508 15.946 8.75481 15.6248 8.75027C15.2369 8.75047 14.8585 8.63036 14.5417 8.40648C14.2249 8.1826 13.9854 7.86599 13.8561 7.50027H17.3936C17.2393 7.93519 16.9299 8.29792 16.5248 8.51902H16.5436ZM9.99985 8.75027C9.61194 8.75047 9.23352 8.63036 8.91673 8.40648C8.59995 8.1826 8.3604 7.86599 8.2311 7.50027H11.7686C11.6393 7.86599 11.3997 8.1826 11.083 8.40648C10.7662 8.63036 10.3878 8.75047 9.99985 8.75027ZM2.6061 7.50027H6.1436C6.01429 7.86599 5.77474 8.1826 5.45796 8.40648C5.14118 8.63036 4.76275 8.75047 4.37485 8.75027C4.05999 8.75156 3.75008 8.67193 3.47485 8.51902C3.06976 8.29792 2.76044 7.93519 2.6061 7.50027ZM3.61235 2.50027H16.3873L17.3248 6.25027H2.67485L3.61235 2.50027Z" fill="#15765B"/>
</svg>
