<svg width="12" height="12" viewBox="0 0 12 12" fill="#FFFFFF" stroke="#FFFFFF" xmlns="http://www.w3.org/2000/svg">
<path d="M11.3536 6.35355C11.5488 6.15829 11.5488 5.84171 11.3536 5.64645L8.17157 2.46447C7.97631 2.2692 7.65973 2.2692 7.46447 2.46447C7.2692 2.65973 7.2692 2.97631 7.46447 3.17157L10.2929 6L7.46447 8.82843C7.2692 9.02369 7.2692 9.34027 7.46447 9.53553C7.65973 9.7308 7.97631 9.7308 8.17157 9.53553L11.3536 6.35355ZM1 5.5C0.723858 5.5 0.5 5.72386 0.5 6C0.5 6.27614 0.723858 6.5 1 6.5L1 5.5ZM11 5.5L1 5.5L1 6.5L11 6.5L11 5.5Z" fill="#222222"/>
</svg>
