<svg width="16" height="16" viewBox="0 0 16 16" fill="none" xmlns="http://www.w3.org/2000/svg">
<path fill-rule="evenodd" clip-rule="evenodd" d="M7.99998 2C8.17893 2 8.34175 2.10344 8.41778 2.26543L10.0246 5.68878L13.6081 6.23629C13.7791 6.26242 13.9212 6.38198 13.9761 6.54602C14.031 6.71006 13.9896 6.89104 13.8688 7.01485L11.2622 9.68637L11.8784 13.4641C11.9069 13.6386 11.8332 13.8139 11.6887 13.9157C11.5443 14.0175 11.3543 14.0279 11.1996 13.9424L7.99998 12.1736L4.80032 13.9424C4.64563 14.0279 4.4557 14.0175 4.31121 13.9157C4.16672 13.8139 4.09306 13.6386 4.12151 13.4641L4.73774 9.68637L2.13118 7.01485C2.01038 6.89104 1.96895 6.71006 2.02387 6.54602C2.07878 6.38198 2.22082 6.26242 2.39182 6.23629L5.97534 5.68878L7.58218 2.26543C7.65821 2.10344 7.82103 2 7.99998 2ZM7.99998 3.54777L6.70631 6.30393C6.64091 6.44326 6.51036 6.54082 6.35821 6.56407L3.41914 7.01312L5.5611 9.20846C5.6634 9.31331 5.70986 9.4605 5.68627 9.60508L5.18556 12.6747L7.77669 11.2423C7.91564 11.1655 8.08432 11.1655 8.22327 11.2423L10.8144 12.6747L10.3137 9.60508C10.2901 9.4605 10.3366 9.31331 10.4389 9.20846L12.5808 7.01312L9.64175 6.56407C9.4896 6.54082 9.35905 6.44326 9.29365 6.30393L7.99998 3.54777Z" fill="#B5B5B5"/>
</svg>
