<svg width="16" height="16" viewBox="0 0 16 16" fill="none" xmlns="http://www.w3.org/2000/svg">
<path d="M8 2C8.17895 2 8.34177 2.10344 8.4178 2.26543L10.0246 5.68879L13.6082 6.2363C13.7792 6.26243 13.9212 6.38199 13.9761 6.54603C14.031 6.71007 13.9896 6.89104 13.8688 7.01486L11.2622 9.68639L11.8785 13.4642C11.9069 13.6386 11.8333 13.814 11.6888 13.9158C11.5443 14.0176 11.3543 14.0279 11.1997 13.9424L8 12.1737L4.80034 13.9424C4.64565 14.0279 4.45572 14.0176 4.31123 13.9158C4.16674 13.814 4.09308 13.6386 4.12153 13.4642L4.73776 9.68639L2.1312 7.01486C2.01039 6.89104 1.96897 6.71007 2.02389 6.54603C2.0788 6.38199 2.22084 6.26243 2.39184 6.2363L5.97536 5.68879L7.5822 2.26543C7.65823 2.10344 7.82105 2 8 2Z" fill="#15765B"/>
</svg>
