<svg width="16" height="16" viewBox="0 0 16 16" fill="none" xmlns="http://www.w3.org/2000/svg">
<path fill-rule="evenodd" clip-rule="evenodd" d="M8 2C8.17895 2 8.34177 2.10344 8.4178 2.26543L10.0246 5.68878L13.6082 6.23629C13.7792 6.26242 13.9212 6.38198 13.9761 6.54602C14.031 6.71006 13.9896 6.89104 13.8688 7.01485L11.2622 9.68637L11.8785 13.4641C11.9069 13.6386 11.8333 13.8139 11.6888 13.9157C11.5443 14.0175 11.3543 14.0279 11.1997 13.9424L8 12.1736L4.80034 13.9424C4.64565 14.0279 4.45572 14.0175 4.31123 13.9157C4.16674 13.8139 4.09308 13.6386 4.12153 13.4641L4.73776 9.68637L2.1312 7.01485C2.01039 6.89104 1.96897 6.71006 2.02389 6.54602C2.0788 6.38198 2.22084 6.26242 2.39184 6.23629L5.97536 5.68878L7.5822 2.26543C7.65823 2.10344 7.82105 2 8 2ZM8 3.54777L6.70633 6.30393C6.64093 6.44326 6.51038 6.54082 6.35823 6.56407L3.41916 7.01312L5.56112 9.20846C5.66342 9.31331 5.70987 9.4605 5.68629 9.60508L5.18558 12.6747L7.77671 11.2423C7.91566 11.1655 8.08434 11.1655 8.22329 11.2423L10.8144 12.6747L10.3137 9.60508C10.2901 9.4605 10.3366 9.31331 10.4389 9.20846L12.5808 7.01312L9.64177 6.56407C9.48962 6.54082 9.35907 6.44326 9.29367 6.30393L8 3.54777Z" fill="#CDCDCD"/>
<path d="M8 2C8.17895 2 8.34177 2.10344 8.4178 2.26543L10 5.63672V8V13.2825L8 12.1737L4.80034 13.9424C4.64565 14.0279 4.45572 14.0176 4.31123 13.9158C4.16674 13.814 4.09308 13.6386 4.12153 13.4642L4.73776 9.68639L2.1312 7.01486C2.01039 6.89104 1.96897 6.71007 2.02389 6.54603C2.0788 6.38199 2.22084 6.26243 2.39184 6.2363L5.97536 5.68879L7.5822 2.26543C7.65823 2.10344 7.82105 2 8 2Z" fill="#15765B"/>
</svg>
