<svg width="60" height="60" viewBox="0 0 60 60" fill="none" xmlns="http://www.w3.org/2000/svg">
<path fill-rule="evenodd" clip-rule="evenodd" d="M30.5458 9.00013C28.3095 8.98535 26.2539 10.2481 25.2577 12.2455L24.3337 14.0935C23.9696 14.2287 23.6114 14.3768 23.257 14.5364L21.2983 13.8835C19.1823 13.1772 16.8337 13.7372 15.2657 15.3306C13.7203 16.9012 13.1898 19.2136 13.8874 21.2983L14.5403 23.2532C14.3772 23.61 14.2247 23.9706 14.0859 24.3375L12.2456 25.2577C10.2502 26.2529 8.9838 28.3065 9.00016 30.542C9.01629 32.746 10.2753 34.7565 12.2417 35.7384L14.0935 36.6701C14.2293 37.0343 14.3769 37.3926 14.5364 37.7468L13.8874 39.7016C13.1817 41.8157 13.7399 44.1622 15.3306 45.7305C16.9 47.2778 19.2125 47.8087 21.2983 47.1126L23.2532 46.4635C23.6096 46.6261 23.9711 46.7752 24.3376 46.9141L25.2577 48.7506C26.2539 50.7481 28.3095 52.0135 30.5458 51.996C32.7494 51.9812 34.7607 50.7188 35.7423 48.7506L36.6624 46.9103C37.0311 46.7736 37.3957 46.6253 37.7544 46.4635L39.7017 47.1126C41.7875 47.8086 44.1 47.2781 45.6694 45.7305C47.261 44.1612 47.8202 41.8127 47.1126 39.6978L46.4636 37.743C46.6258 37.3876 46.7759 37.0277 46.9141 36.6624L48.7544 35.7384C50.7223 34.757 51.9837 32.7469 51.9998 30.542C52.0162 28.3064 50.7498 26.2529 48.7544 25.2577L46.9065 24.3337C46.7706 23.9672 46.6235 23.606 46.4636 23.2494L47.1126 21.2983V21.2945C47.8083 19.2107 47.2788 16.9003 45.7343 15.3306C44.1663 13.7369 41.8177 13.1774 39.7017 13.8835L37.743 14.5364C37.3876 14.3746 37.0278 14.224 36.6624 14.0859L35.7423 12.2455C34.7607 10.2774 32.7495 9.01734 30.5458 9.00013ZM30.5153 12.9099C31.2505 12.9156 31.9148 13.3325 32.2449 13.9942L33.4858 16.476C33.6023 16.7094 33.7643 16.9172 33.9623 17.087C34.1604 17.2569 34.3904 17.3853 34.6388 17.4649C35.3754 17.6999 36.0907 17.9947 36.777 18.3507C37.0087 18.4713 37.2622 18.5442 37.5225 18.5652C37.7829 18.5862 38.0448 18.5548 38.2928 18.4729L40.9349 17.5947H40.9387C41.6507 17.3568 42.4241 17.543 42.9471 18.072C43.4621 18.5958 43.6361 19.3599 43.4014 20.0612V20.065L42.5271 22.6957C42.4456 22.9416 42.4137 23.2011 42.4334 23.4594C42.4531 23.7176 42.5238 23.9694 42.6416 24.2001C42.9933 24.8879 43.2852 25.6048 43.516 26.342C43.5946 26.5929 43.7231 26.8254 43.8937 27.0255C44.0642 27.2256 44.2734 27.3892 44.5087 27.5066L47.0057 28.7551C47.6773 29.0898 48.0956 29.7668 48.0901 30.5114C48.0847 31.2451 47.6679 31.9108 47.0057 32.241H47.0019L44.5201 33.4857C44.2874 33.6026 44.0804 33.7649 43.9112 33.9629C43.7421 34.1609 43.6142 34.3907 43.5351 34.6388C43.2987 35.3755 43.0027 36.0907 42.6454 36.777C42.5243 37.0092 42.4511 37.2633 42.4301 37.5244C42.4091 37.7854 42.4408 38.048 42.5233 38.2966L43.4014 40.9349C43.6395 41.6464 43.4588 42.4199 42.928 42.9432C42.4049 43.459 41.6404 43.6356 40.9387 43.4014H40.9349L38.3042 42.5271C38.0578 42.445 37.7976 42.4129 37.5386 42.4326C37.2797 42.4522 37.0273 42.5233 36.7961 42.6416C36.1073 42.9948 35.3926 43.2881 34.6541 43.5198C34.4032 43.5984 34.1708 43.7269 33.9707 43.8975C33.7706 44.068 33.607 44.2772 33.4896 44.5125L32.2449 47.0019C31.9148 47.6639 31.2506 48.0805 30.5153 48.0862C29.7687 48.0921 29.0903 47.674 28.7551 47.0019L27.5142 44.5239C27.3977 44.2905 27.2357 44.0828 27.0377 43.9129C26.8396 43.7431 26.6096 43.6146 26.3612 43.535C25.6234 43.2986 24.9065 43.003 24.2192 42.6454C23.987 42.5243 23.7328 42.4511 23.4718 42.4301C23.2107 42.4091 22.9481 42.4408 22.6996 42.5232L20.0613 43.4014C19.3596 43.6356 18.5951 43.4604 18.072 42.9432C17.5412 42.4201 17.3605 41.6465 17.5986 40.9349V40.9311L18.4729 38.3004C18.5544 38.0538 18.5858 37.7934 18.5655 37.5344C18.5452 37.2755 18.4735 37.0232 18.3546 36.7922C18.0019 36.1058 17.7084 35.3903 17.4764 34.6541C17.3982 34.4046 17.2707 34.1733 17.1015 33.9739C16.9323 33.7745 16.7248 33.6111 16.4913 33.4934L13.9981 32.241H13.9943C13.3321 31.9108 12.9153 31.2455 12.9099 30.5114C12.9045 29.7668 13.3227 29.09 13.9943 28.7551L16.476 27.5142C16.7095 27.3977 16.9172 27.2357 17.0871 27.0376C17.2569 26.8396 17.3854 26.6096 17.4649 26.3611C17.7013 25.6245 17.9973 24.9092 18.3546 24.223C18.4751 23.9913 18.5481 23.7378 18.5691 23.4774C18.59 23.2171 18.5587 22.9552 18.4767 22.7072L17.5986 20.065V20.0612C17.3639 19.3601 17.5378 18.5955 18.0529 18.072C18.5759 17.5408 19.3493 17.3575 20.0613 17.5947L22.6958 18.4729C22.9422 18.5549 23.2024 18.587 23.4614 18.5674C23.7203 18.5477 23.9727 18.4766 24.2039 18.3583C24.8907 18.0067 25.6059 17.7148 26.3421 17.484C26.593 17.4053 26.8254 17.2769 27.0255 17.1063C27.2256 16.9357 27.3892 16.7266 27.5066 16.4913L28.7551 13.9942C29.0903 13.3219 29.7687 12.904 30.5153 12.9099ZM30.5076 20.7256C25.1326 20.7256 20.7218 25.1211 20.7218 30.4962C20.7218 35.8712 25.1325 40.2782 30.5076 40.2782C35.8828 40.2782 40.2744 35.8712 40.2744 30.4962C40.2744 25.1211 35.8827 20.7256 30.5076 20.7256ZM30.5076 24.6353C33.7697 24.6353 36.3646 27.2341 36.3646 30.4962C36.3647 33.7583 33.7698 36.3684 30.5076 36.3684C27.2455 36.3684 24.6315 33.7583 24.6315 30.4962C24.6316 27.2341 27.2455 24.6353 30.5076 24.6353Z" fill="white"/>
</svg>
