<svg width="60" height="60" viewBox="0 0 60 60" fill="none" xmlns="http://www.w3.org/2000/svg">
<path d="M9 14.3C9 13.1596 9.45303 12.0658 10.2594 11.2594C11.0658 10.453 12.1596 10 13.3 10H47.7C48.8404 10 49.9342 10.453 50.7406 11.2594C51.547 12.0658 52 13.1596 52 14.3V37.95C52 39.0904 51.547 40.1842 50.7406 40.9906C49.9342 41.797 48.8404 42.25 47.7 42.25H32.65V46.55H39.1C39.6702 46.55 40.2171 46.7765 40.6203 47.1797C41.0235 47.5829 41.25 48.1298 41.25 48.7C41.25 49.2702 41.0235 49.8171 40.6203 50.2203C40.2171 50.6235 39.6702 50.85 39.1 50.85H21.9C21.3298 50.85 20.7829 50.6235 20.3797 50.2203C19.9765 49.8171 19.75 49.2702 19.75 48.7C19.75 48.1298 19.9765 47.5829 20.3797 47.1797C20.7829 46.7765 21.3298 46.55 21.9 46.55H28.35V42.25H13.3C12.1596 42.25 11.0658 41.797 10.2594 40.9906C9.45303 40.1842 9 39.0904 9 37.95V14.3ZM47.7 37.95V14.3H13.3V37.95H47.7Z" fill="#15765B"/>
</svg>
