<svg width="60" height="60" viewBox="0 0 60 60" fill="none" xmlns="http://www.w3.org/2000/svg">
<path fill-rule="evenodd" clip-rule="evenodd" d="M14.3235 14.2157C13.169 14.2157 12.2157 15.169 12.2157 16.3235C12.2157 16.8826 12.4378 17.4187 12.8331 17.814C13.2284 18.2093 13.7645 18.4314 14.3235 18.4314H37.5098V14.2157H14.3235ZM41.7255 18.4314V12.1078C41.7255 10.9437 40.7818 10 39.6176 10H14.3235C10.8408 10 8 12.8408 8 16.3235C8 18.0006 8.66623 19.609 9.85212 20.7949C11.038 21.9808 12.6464 22.6471 14.3235 22.6471H41.7255V28.9706C41.7255 30.1347 42.6692 31.0784 43.8333 31.0784C44.9975 31.0784 45.9412 30.1347 45.9412 28.9706V20.5392C45.9412 19.3751 44.9975 18.4314 43.8333 18.4314H41.7255Z" fill="#15765B"/>
<path fill-rule="evenodd" clip-rule="evenodd" d="M10.1078 14.2148C11.272 14.2148 12.2157 15.1822 12.2157 16.3754V42.3019C12.2157 43.4852 13.169 44.4624 14.3235 44.4624H41.7255V37.9808C41.7255 36.7875 42.6692 35.8202 43.8333 35.8202C44.9975 35.8202 45.9412 36.7875 45.9412 37.9808V46.6229C45.9412 47.8162 44.9975 48.7835 43.8333 48.7835H14.3235C10.8408 48.7835 8 45.8717 8 42.3019V16.3754C8 15.1822 8.94371 14.2148 10.1078 14.2148Z" fill="#15765B"/>
<path fill-rule="evenodd" clip-rule="evenodd" d="M35.2389 28.8389C36.484 27.5739 38.1729 26.8633 39.9338 26.8633H48.7868C50.0091 26.8633 51 27.8699 51 29.1116V38.1051C51 39.3469 50.0091 40.3535 48.7868 40.3535H39.9338C36.2769 40.3535 33.2941 37.3233 33.2941 33.6084C33.2941 31.8195 33.9937 30.1038 35.2389 28.8389ZM39.9338 31.36C39.3468 31.36 38.7839 31.5969 38.3688 32.0185C37.9538 32.4402 37.7206 33.0121 37.7206 33.6084C37.7206 34.8398 38.7216 35.8567 39.9338 35.8567H46.5735V31.36H39.9338Z" fill="#15765B"/>
</svg>
