<svg width="16" height="17" viewBox="0 0 16 17" fill="none" xmlns="http://www.w3.org/2000/svg">
<rect y="0.5" width="16" height="16" rx="8" fill="#15765B"/>
<path d="M6.92229 9.7309C6.97227 9.66528 7.00663 9.61215 7.05036 9.5684C8.22803 8.39028 9.40569 7.21215 10.5834 6.0309C10.7802 5.8309 11.0019 5.72465 11.2862 5.81215C11.6892 5.93715 11.8516 6.4184 11.6048 6.76215C11.5611 6.82465 11.5049 6.8809 11.4486 6.93715C10.1117 8.27465 8.77781 9.61215 7.44083 10.9465C7.06911 11.3184 6.74111 11.3184 6.36625 10.9434C5.74775 10.3247 5.12924 9.7059 4.51073 9.08715C4.32955 8.9059 4.23896 8.69653 4.31081 8.43715C4.43263 8.00278 4.94806 7.8309 5.2948 8.1184C5.4791 8.27153 5.64154 8.44965 5.81022 8.6184C6.16946 8.97778 6.52869 9.34028 6.92229 9.7309Z" fill="white"/>
</svg>
