<svg width="12" height="10" viewBox="0 0 12 10" fill="none" xmlns="http://www.w3.org/2000/svg">
<path fill-rule="evenodd" clip-rule="evenodd" d="M4.375 0.4C4.375 0.179086 4.55409 0 4.775 0H6.475C6.69591 0 6.875 0.179086 6.875 0.4V9.6C6.875 9.82091 6.69591 10 6.475 10H4.775C4.55409 10 4.375 9.82091 4.375 9.6V0.4ZM0 5.4C0 5.17909 0.179086 5 0.4 5H2.1C2.32091 5 2.5 5.17909 2.5 5.4V9.6C2.5 9.82091 2.32091 10 2.1 10H0.4C0.179086 10 0 9.82091 0 9.6V5.4ZM9.4 7C9.17909 7 9 7.17909 9 7.4V9.1C9 9.32091 9.17909 9.5 9.4 9.5H11.1C11.3209 9.5 11.5 9.32091 11.5 9.1V7.4C11.5 7.17909 11.3209 7 11.1 7H9.4Z" fill="#15765B"/>
</svg>
