<svg width="12" height="13" viewBox="0 0 12 13" fill="none" xmlns="http://www.w3.org/2000/svg">
<path fill-rule="evenodd" clip-rule="evenodd" d="M5.38947 5.60918C5.13368 5.60918 4.92632 5.81026 4.92632 6.05831V10.1004C4.92632 10.3485 5.13368 10.5495 5.38947 10.5495H9.5579C9.81369 10.5495 10.0211 10.3485 10.0211 10.1004V6.05831C10.0211 5.81026 9.81369 5.60918 9.5579 5.60918H5.38947ZM4 6.05831C4 5.31417 4.62209 4.71094 5.38947 4.71094H9.5579C10.3253 4.71094 10.9474 5.31417 10.9474 6.05831V10.1004C10.9474 10.8445 10.3253 11.4478 9.5579 11.4478H5.38947C4.62209 11.4478 4 10.8445 4 10.1004V6.05831Z" fill="#727272"/>
<path fill-rule="evenodd" clip-rule="evenodd" d="M2.4001 2.45098C2.28099 2.45098 2.16675 2.4983 2.08253 2.58253C1.9983 2.66675 1.95098 2.78099 1.95098 2.9001V6.94221C1.95098 7.06132 1.9983 7.17556 2.08253 7.25979C2.16675 7.34401 2.28099 7.39133 2.4001 7.39133H2.84923C3.09727 7.39133 3.29835 7.59241 3.29835 7.84045C3.29835 8.0885 3.09727 8.28958 2.84923 8.28958H2.4001C2.04276 8.28958 1.70005 8.14762 1.44737 7.89494C1.19469 7.64226 1.05273 7.29955 1.05273 6.94221V2.9001C1.05273 2.54276 1.19469 2.20005 1.44737 1.94737C1.70005 1.69469 2.04276 1.55273 2.4001 1.55273H6.44221C6.79955 1.55273 7.14226 1.69469 7.39494 1.94737C7.64762 2.20005 7.78958 2.54276 7.78958 2.9001V3.34923C7.78958 3.59727 7.5885 3.79835 7.34045 3.79835C7.09241 3.79835 6.89133 3.59727 6.89133 3.34923V2.9001C6.89133 2.78099 6.84401 2.66675 6.75979 2.58253C6.67556 2.4983 6.56132 2.45098 6.44221 2.45098H2.4001Z" fill="#727272"/>
</svg>
