<svg width="12" height="16" viewBox="0 0 12 16" fill="none" xmlns="http://www.w3.org/2000/svg">
<path fill-rule="evenodd" clip-rule="evenodd" d="M0.703658 1.37034C1.04747 1.02653 1.51379 0.833374 2.00002 0.833374H7.66669C7.79929 0.833374 7.92647 0.886052 8.02024 0.979821L11.6869 4.64649C11.7807 4.74026 11.8334 4.86743 11.8334 5.00004V13.3334C11.8334 13.8196 11.6402 14.2859 11.2964 14.6297C10.9526 14.9736 10.4863 15.1667 10 15.1667H2.00002C1.51379 15.1667 1.04747 14.9736 0.703658 14.6297C0.359841 14.2859 0.166687 13.8196 0.166687 13.3334V2.66671C0.166687 2.18048 0.359841 1.71416 0.703658 1.37034ZM2.00002 1.83337C1.77901 1.83337 1.56704 1.92117 1.41076 2.07745C1.25448 2.23373 1.16669 2.44569 1.16669 2.66671V13.3334C1.16669 13.5544 1.25448 13.7663 1.41076 13.9226C1.56705 14.0789 1.77901 14.1667 2.00002 14.1667H10C10.221 14.1667 10.433 14.0789 10.5893 13.9226C10.7456 13.7663 10.8334 13.5544 10.8334 13.3334V5.20715L7.45958 1.83337H2.00002Z" fill="#15765B"/>
<path fill-rule="evenodd" clip-rule="evenodd" d="M7.33337 0.833374C7.60952 0.833374 7.83337 1.05723 7.83337 1.33337V4.83337H11.3334C11.6095 4.83337 11.8334 5.05723 11.8334 5.33337C11.8334 5.60952 11.6095 5.83337 11.3334 5.83337H7.33337C7.05723 5.83337 6.83337 5.60952 6.83337 5.33337V1.33337C6.83337 1.05723 7.05723 0.833374 7.33337 0.833374Z" fill="#15765B"/>
<path fill-rule="evenodd" clip-rule="evenodd" d="M2.83337 8.66675C2.83337 8.39061 3.05723 8.16675 3.33337 8.16675H8.66671C8.94285 8.16675 9.16671 8.39061 9.16671 8.66675C9.16671 8.94289 8.94285 9.16675 8.66671 9.16675H3.33337C3.05723 9.16675 2.83337 8.94289 2.83337 8.66675Z" fill="#15765B"/>
<path fill-rule="evenodd" clip-rule="evenodd" d="M2.83337 11.3334C2.83337 11.0572 3.05723 10.8334 3.33337 10.8334H8.66671C8.94285 10.8334 9.16671 11.0572 9.16671 11.3334C9.16671 11.6095 8.94285 11.8334 8.66671 11.8334H3.33337C3.05723 11.8334 2.83337 11.6095 2.83337 11.3334Z" fill="#15765B"/>
<path fill-rule="evenodd" clip-rule="evenodd" d="M2.83337 6C2.83337 5.72386 3.05723 5.5 3.33337 5.5H4.66671C4.94285 5.5 5.16671 5.72386 5.16671 6C5.16671 6.27614 4.94285 6.5 4.66671 6.5H3.33337C3.05723 6.5 2.83337 6.27614 2.83337 6Z" fill="#15765B"/>
</svg>
