<svg width="24" height="24" viewBox="0 0 24 24" fill="none" xmlns="http://www.w3.org/2000/svg">
<path fill-rule="evenodd" clip-rule="evenodd" d="M7.10044 4.53846C4.9847 4.53846 3.25428 6.28553 3.25428 8.54223C3.25428 11.4595 5.34882 14.3018 7.63439 16.5043C8.75615 17.5852 9.88103 18.4712 10.7268 19.0875C11.1348 19.3847 11.4762 19.6181 11.7189 19.779C11.9612 19.6202 12.3017 19.3901 12.7084 19.0967C13.5536 18.4869 14.6777 17.6085 15.7987 16.5324C18.0808 14.3416 20.1774 11.4953 20.1774 8.52885C20.1774 6.28697 18.4483 4.53846 16.3312 4.53846C15.3537 4.53846 14.3859 5.15755 13.5923 5.91293C13.2099 6.27701 12.8985 6.64367 12.6826 6.92005C12.5751 7.05762 12.4926 7.17124 12.4379 7.24885C12.4106 7.28762 12.3904 7.31729 12.3775 7.33633L12.3639 7.35671L12.3618 7.35992C12.2201 7.57895 11.9767 7.71154 11.7158 7.71154C11.4551 7.71154 11.2121 7.57947 11.0703 7.36073C11.0702 7.36057 11.0705 7.3609 11.0703 7.36073L11.0677 7.35671L11.0541 7.33633C11.0413 7.31729 11.021 7.28762 10.9937 7.24885C10.9391 7.17124 10.8565 7.05762 10.749 6.92005C10.5331 6.64367 10.2218 6.27701 9.8393 5.91293C9.04577 5.15755 8.07791 4.53846 7.10044 4.53846ZM11.7158 5.66967C11.4943 5.40563 11.2196 5.10277 10.9 4.79861C10.0269 3.96745 8.68706 3 7.10044 3C4.08797 3 1.71582 5.4837 1.71582 8.54223C1.71582 12.134 4.23686 15.3668 6.56686 17.6121C7.7529 18.755 8.9358 19.686 9.82085 20.3309C10.2641 20.6538 10.6343 20.9062 10.8952 21.0788C11.0257 21.1651 11.1289 21.2315 11.2004 21.2769C11.2361 21.2995 11.2639 21.317 11.2832 21.329L11.3057 21.3429L11.314 21.348C11.3143 21.3482 11.3151 21.3487 11.7162 20.6923L11.314 21.348C11.5587 21.4976 11.8674 21.4992 12.1131 21.3513L11.7162 20.6923C12.1131 21.3513 12.1128 21.3514 12.1131 21.3513L12.1161 21.3494L12.1225 21.3456L12.1451 21.3318C12.1644 21.3199 12.1923 21.3027 12.2281 21.2803C12.2996 21.2354 12.403 21.1698 12.5336 21.0845C12.7946 20.9139 13.1651 20.6643 13.6085 20.3444C14.494 19.7055 15.6775 18.7814 16.8641 17.6422C19.1972 15.4025 21.7158 12.167 21.7158 8.52885C21.7158 5.48227 19.3423 3 16.3312 3C14.7446 3 13.4047 3.96745 12.5316 4.79861C12.2121 5.10277 11.9373 5.40563 11.7158 5.66967Z" fill="#727272"/>
</svg>
