<svg width="20" height="20" viewBox="0 0 20 20" fill="none" xmlns="http://www.w3.org/2000/svg">
<rect x="0.5" y="0.5" width="19" height="19" rx="1.5" fill="#15765B"/>
<rect x="0.5" y="0.5" width="19" height="19" rx="1.5" stroke="#15765B"/>
<g clip-path="url(#clip0_81_9828)">
<g clip-path="url(#clip1_81_9828)">
<path fill-rule="evenodd" clip-rule="evenodd" d="M15.8546 6.64592C15.9012 6.69236 15.9381 6.74754 15.9633 6.80828C15.9886 6.86903 16.0015 6.93415 16.0015 6.99992C16.0015 7.06568 15.9886 7.13081 15.9633 7.19155C15.9381 7.2523 15.9012 7.30747 15.8546 7.35392L8.85463 14.3539C8.80819 14.4005 8.75301 14.4374 8.69227 14.4626C8.63152 14.4878 8.5664 14.5008 8.50063 14.5008C8.43486 14.5008 8.36974 14.4878 8.309 14.4626C8.24825 14.4374 8.19308 14.4005 8.14663 14.3539L4.64663 10.8539C4.55274 10.76 4.5 10.6327 4.5 10.4999C4.5 10.3671 4.55274 10.2398 4.64663 10.1459C4.74052 10.052 4.86786 9.99929 5.00063 9.99929C5.13341 9.99929 5.26075 10.052 5.35463 10.1459L8.50063 13.2929L15.1466 6.64592C15.1931 6.59935 15.2483 6.56241 15.309 6.5372C15.3697 6.512 15.4349 6.49902 15.5006 6.49902C15.5664 6.49902 15.6315 6.512 15.6923 6.5372C15.753 6.56241 15.8082 6.59935 15.8546 6.64592Z" fill="white"/>
</g>
</g>
<defs>
<clipPath id="clip0_81_9828">
<rect width="12.0009" height="9" fill="white" transform="translate(4 6)"/>
</clipPath>
<clipPath id="clip1_81_9828">
<rect width="11.5015" height="8.00179" fill="white" transform="translate(4.5 6.49902)"/>
</clipPath>
</defs>
</svg>
