<svg width="24" height="24" viewBox="0 0 24 24" fill="none" xmlns="http://www.w3.org/2000/svg">
<path d="M12 3L12.3354 2.32918L12 2.16147L11.6646 2.32918L12 3ZM21 7.5H21.75V7.03647L21.3354 6.82918L21 7.5ZM21 16.5L21.3354 17.1708L21.75 16.9635V16.5H21ZM12 21L11.6646 21.6708L12 21.8385L12.3354 21.6708L12 21ZM3 16.5H2.25V16.9635L2.66459 17.1708L3 16.5ZM3 7.5L2.66459 6.82918L2.25 7.03647V7.5H3ZM16.25 13C16.25 13.4142 16.5858 13.75 17 13.75C17.4142 13.75 17.75 13.4142 17.75 13H16.25ZM17 9.5H17.75V9.03647L17.3354 8.82918L17 9.5ZM8.33541 4.32918C7.96493 4.14394 7.51442 4.29411 7.32918 4.66459C7.14394 5.03507 7.29411 5.48558 7.66459 5.67082L8.33541 4.32918ZM11.25 20.5C11.25 20.9142 11.5858 21.25 12 21.25C12.4142 21.25 12.75 20.9142 12.75 20.5H11.25ZM11.6646 3.67082L20.6646 8.17082L21.3354 6.82918L12.3354 2.32918L11.6646 3.67082ZM20.25 7.5V16.5H21.75V7.5H20.25ZM20.6646 15.8292L11.6646 20.3292L12.3354 21.6708L21.3354 17.1708L20.6646 15.8292ZM12.3354 20.3292L3.33541 15.8292L2.66459 17.1708L11.6646 21.6708L12.3354 20.3292ZM3.75 16.5V7.5H2.25V16.5H3.75ZM3.33541 8.17082L12.3354 3.67082L11.6646 2.32918L2.66459 6.82918L3.33541 8.17082ZM20.6646 6.82918L11.6646 11.3292L12.3354 12.6708L21.3354 8.17082L20.6646 6.82918ZM12.3354 11.3292L3.33541 6.82918L2.66459 8.17082L11.6646 12.6708L12.3354 11.3292ZM17.75 13V9.5H16.25V13H17.75ZM17.3354 8.82918L8.33541 4.32918L7.66459 5.67082L16.6646 10.1708L17.3354 8.82918ZM12.75 20.5V12H11.25V20.5H12.75Z" fill="#222222"/>
</svg>
