<svg width="25" height="24" viewBox="0 0 25 24" fill="none" xmlns="http://www.w3.org/2000/svg">
<path fill-rule="evenodd" clip-rule="evenodd" d="M8.75 15.75C7.38707 15.75 6.25 16.8886 6.25 18.3333V19.25H18.75V18.3333C18.75 16.8886 17.6129 15.75 16.25 15.75H8.75ZM4.75 18.3333C4.75 16.0962 6.52307 14.25 8.75 14.25H16.25C18.4769 14.25 20.25 16.0962 20.25 18.3333V20C20.25 20.4142 19.9142 20.75 19.5 20.75H5.5C5.08579 20.75 4.75 20.4142 4.75 20V18.3333Z" fill="#222222"/>
<path fill-rule="evenodd" clip-rule="evenodd" d="M12.5 3.75C10.7051 3.75 9.25 5.20507 9.25 7C9.25 8.79493 10.7051 10.25 12.5 10.25C14.2949 10.25 15.75 8.79493 15.75 7C15.75 5.20507 14.2949 3.75 12.5 3.75ZM7.75 7C7.75 4.37665 9.87665 2.25 12.5 2.25C15.1234 2.25 17.25 4.37665 17.25 7C17.25 9.62335 15.1234 11.75 12.5 11.75C9.87665 11.75 7.75 9.62335 7.75 7Z" fill="#222222"/>
</svg>
