<svg width="14" height="16" viewBox="0 0 14 16" fill="none" xmlns="http://www.w3.org/2000/svg">
<path fill-rule="evenodd" clip-rule="evenodd" d="M11 1.83337C10.1716 1.83337 9.5 2.50495 9.5 3.33337C9.5 4.1618 10.1716 4.83337 11 4.83337C11.8284 4.83337 12.5 4.1618 12.5 3.33337C12.5 2.50495 11.8284 1.83337 11 1.83337ZM8.5 3.33337C8.5 1.95266 9.61929 0.833374 11 0.833374C12.3807 0.833374 13.5 1.95266 13.5 3.33337C13.5 4.71409 12.3807 5.83337 11 5.83337C9.61929 5.83337 8.5 4.71409 8.5 3.33337Z" fill="#15765B"/>
<path fill-rule="evenodd" clip-rule="evenodd" d="M3 6.5C2.17157 6.5 1.5 7.17157 1.5 8C1.5 8.82843 2.17157 9.5 3 9.5C3.82843 9.5 4.5 8.82843 4.5 8C4.5 7.17157 3.82843 6.5 3 6.5ZM0.5 8C0.5 6.61929 1.61929 5.5 3 5.5C4.38071 5.5 5.5 6.61929 5.5 8C5.5 9.38071 4.38071 10.5 3 10.5C1.61929 10.5 0.5 9.38071 0.5 8Z" fill="#15765B"/>
<path fill-rule="evenodd" clip-rule="evenodd" d="M11 11.1667C10.1716 11.1667 9.5 11.8383 9.5 12.6667C9.5 13.4952 10.1716 14.1667 11 14.1667C11.8284 14.1667 12.5 13.4952 12.5 12.6667C12.5 11.8383 11.8284 11.1667 11 11.1667ZM8.5 12.6667C8.5 11.286 9.61929 10.1667 11 10.1667C12.3807 10.1667 13.5 11.286 13.5 12.6667C13.5 14.0475 12.3807 15.1667 11 15.1667C9.61929 15.1667 8.5 14.0475 8.5 12.6667Z" fill="#15765B"/>
<path fill-rule="evenodd" clip-rule="evenodd" d="M4.29467 8.75493C4.4337 8.51635 4.73982 8.43564 4.97841 8.57467L9.53175 11.228C9.77034 11.367 9.85104 11.6732 9.71201 11.9117C9.57298 12.1503 9.26686 12.231 9.02827 12.092L4.47494 9.43868C4.23635 9.29965 4.15564 8.99352 4.29467 8.75493Z" fill="#15765B"/>
<path fill-rule="evenodd" clip-rule="evenodd" d="M9.70518 4.08803C9.84437 4.32653 9.76386 4.63271 9.52536 4.77189L4.97869 7.42522C4.74019 7.56441 4.43401 7.4839 4.29483 7.24539C4.15565 7.00689 4.23616 6.70072 4.47466 6.56154L9.02133 3.9082C9.25983 3.76902 9.566 3.84953 9.70518 4.08803Z" fill="#15765B"/>
</svg>
