<svg width="24" height="24" viewBox="0 0 24 24" fill="none" xmlns="http://www.w3.org/2000/svg">
<path fill-rule="evenodd" clip-rule="evenodd" d="M18 2.75C16.7574 2.75 15.75 3.75736 15.75 5C15.75 6.24264 16.7574 7.25 18 7.25C19.2426 7.25 20.25 6.24264 20.25 5C20.25 3.75736 19.2426 2.75 18 2.75ZM14.25 5C14.25 2.92893 15.9289 1.25 18 1.25C20.0711 1.25 21.75 2.92893 21.75 5C21.75 7.07107 20.0711 8.75 18 8.75C15.9289 8.75 14.25 7.07107 14.25 5Z" fill="#727272"/>
<path fill-rule="evenodd" clip-rule="evenodd" d="M6 9.75C4.75736 9.75 3.75 10.7574 3.75 12C3.75 13.2426 4.75736 14.25 6 14.25C7.24264 14.25 8.25 13.2426 8.25 12C8.25 10.7574 7.24264 9.75 6 9.75ZM2.25 12C2.25 9.92893 3.92893 8.25 6 8.25C8.07107 8.25 9.75 9.92893 9.75 12C9.75 14.0711 8.07107 15.75 6 15.75C3.92893 15.75 2.25 14.0711 2.25 12Z" fill="#727272"/>
<path fill-rule="evenodd" clip-rule="evenodd" d="M18 16.75C16.7574 16.75 15.75 17.7574 15.75 19C15.75 20.2426 16.7574 21.25 18 21.25C19.2426 21.25 20.25 20.2426 20.25 19C20.25 17.7574 19.2426 16.75 18 16.75ZM14.25 19C14.25 16.9289 15.9289 15.25 18 15.25C20.0711 15.25 21.75 16.9289 21.75 19C21.75 21.0711 20.0711 22.75 18 22.75C15.9289 22.75 14.25 21.0711 14.25 19Z" fill="#727272"/>
<path fill-rule="evenodd" clip-rule="evenodd" d="M7.94196 13.1323C8.15051 12.7744 8.60969 12.6533 8.96757 12.8619L15.7976 16.8419C16.1555 17.0504 16.2765 17.5096 16.068 17.8675C15.8594 18.2254 15.4002 18.3464 15.0424 18.1379L8.21236 14.1579C7.85447 13.9493 7.73341 13.4902 7.94196 13.1323Z" fill="#727272"/>
<path fill-rule="evenodd" clip-rule="evenodd" d="M16.0577 6.13187C16.2665 6.48962 16.1457 6.94888 15.788 7.15765L8.96799 11.1377C8.61024 11.3464 8.15098 11.2257 7.9422 10.8679C7.73343 10.5102 7.85419 10.0509 8.21194 9.84212L15.0319 5.86212C15.3897 5.65335 15.849 5.77412 16.0577 6.13187Z" fill="#727272"/>
</svg>
