<svg width="20" height="20" viewBox="0 0 20 20" fill="none" xmlns="http://www.w3.org/2000/svg">
<g clip-path="url(#clip0_879_2091)">
<path d="M5.625 7.5C5.79076 7.5 5.94973 7.43415 6.06694 7.31694C6.18415 7.19973 6.25 7.04076 6.25 6.875C6.25 6.70924 6.18415 6.55027 6.06694 6.43306C5.94973 6.31585 5.79076 6.25 5.625 6.25H5V5C5 4.83424 4.93415 4.67527 4.81694 4.55806C4.69973 4.44085 4.54076 4.375 4.375 4.375C4.20924 4.375 4.05027 4.44085 3.93306 4.55806C3.81585 4.67527 3.75 4.83424 3.75 5V6.875C3.75 7.04076 3.81585 7.19973 3.93306 7.31694C4.05027 7.43415 4.20924 7.5 4.375 7.5H5.625Z" fill="#15765B"/>
<path d="M19.8156 11.1221L18.6625 9.96899L17.7719 7.59399C17.7274 7.47487 17.6476 7.37215 17.5432 7.29956C17.4387 7.22697 17.3147 7.18796 17.1875 7.18774H15.9375C15.7717 7.18774 15.6128 7.25359 15.4956 7.3708C15.3783 7.48801 15.3125 7.64698 15.3125 7.81274C15.3125 7.9785 15.3783 8.13747 15.4956 8.25468C15.6128 8.37189 15.7717 8.43774 15.9375 8.43774H16.7531L17.5375 10.5315C17.569 10.6149 17.6181 10.6905 17.6813 10.7534L18.75 11.8221V14.3752H17.1625C16.8608 13.854 16.3811 13.4592 15.8115 13.2634C15.242 13.0677 14.6209 13.0841 14.0625 13.3096V6.30024C14.0625 6.12122 13.9914 5.94953 13.8648 5.82294C13.7382 5.69636 13.5665 5.62524 13.3875 5.62524H8.56563C8.35846 4.92547 7.97953 4.28864 7.46334 3.77274C6.94715 3.25684 6.31011 2.87826 5.61022 2.67148C4.91033 2.4647 4.16984 2.43628 3.45616 2.58882C2.74248 2.74136 2.0783 3.07001 1.5241 3.54484C0.969896 4.01966 0.543278 4.62558 0.283093 5.30742C0.0229084 5.98926 -0.0625765 6.72536 0.0344227 7.44868C0.131422 8.172 0.407824 8.85957 0.838458 9.44877C1.26909 10.038 1.84028 10.5101 2.5 10.8221V14.9502C2.5 15.1293 2.57112 15.301 2.6977 15.4275C2.82429 15.5541 2.99598 15.6252 3.175 15.6252H3.4375C3.4375 16.2883 3.70089 16.9242 4.16973 17.393C4.63858 17.8618 5.27446 18.1252 5.9375 18.1252C6.60054 18.1252 7.23643 17.8618 7.70527 17.393C8.17411 16.9242 8.4375 16.2883 8.4375 15.6252H12.5C12.5 16.2883 12.7634 16.9242 13.2322 17.393C13.7011 17.8618 14.337 18.1252 15 18.1252C15.663 18.1252 16.2989 17.8618 16.7678 17.393C17.2366 16.9242 17.5 16.2883 17.5 15.6252H19.375C19.5408 15.6252 19.6997 15.5594 19.8169 15.4422C19.9342 15.325 20 15.166 20 15.0002V11.5627C19.9993 11.3972 19.933 11.2388 19.8156 11.1221ZM1.25 6.87524C1.25 6.25717 1.43328 5.65299 1.77666 5.13908C2.12004 4.62518 2.6081 4.22464 3.17912 3.98812C3.75014 3.75159 4.37847 3.68971 4.98466 3.81029C5.59085 3.93087 6.14767 4.22849 6.58471 4.66553C7.02175 5.10257 7.31938 5.65939 7.43996 6.26558C7.56053 6.87178 7.49865 7.50011 7.26213 8.07113C7.0256 8.64215 6.62506 9.1302 6.11116 9.47358C5.59726 9.81696 4.99307 10.0002 4.375 10.0002C3.5462 10.0002 2.75134 9.671 2.16529 9.08495C1.57924 8.4989 1.25 7.70404 1.25 6.87524ZM5.9375 16.8752C5.69028 16.8752 5.4486 16.8019 5.24304 16.6646C5.03748 16.5272 4.87726 16.332 4.78265 16.1036C4.68804 15.8752 4.66329 15.6239 4.71152 15.3814C4.75975 15.1389 4.8788 14.9162 5.05362 14.7414C5.22843 14.5665 5.45116 14.4475 5.69364 14.3993C5.93612 14.351 6.18745 14.3758 6.41586 14.4704C6.64426 14.565 6.83949 14.7252 6.97684 14.9308C7.11419 15.1363 7.1875 15.378 7.1875 15.6252C7.1875 15.9568 7.05581 16.2747 6.82139 16.5091C6.58696 16.7435 6.26902 16.8752 5.9375 16.8752ZM15 16.8752C14.7528 16.8752 14.5111 16.8019 14.3055 16.6646C14.1 16.5272 13.9398 16.332 13.8452 16.1036C13.7505 15.8752 13.7258 15.6239 13.774 15.3814C13.8223 15.1389 13.9413 14.9162 14.1161 14.7414C14.2909 14.5665 14.5137 14.4475 14.7561 14.3993C14.9986 14.351 15.2499 14.3758 15.4784 14.4704C15.7068 14.565 15.902 14.7252 16.0393 14.9308C16.1767 15.1363 16.25 15.378 16.25 15.6252C16.25 15.9568 16.1183 16.2747 15.8839 16.5091C15.6495 16.7435 15.3315 16.8752 15 16.8752Z" fill="#15765B"/>
</g>
<defs>
<clipPath id="clip0_879_2091">
<rect width="20" height="20" fill="white"/>
</clipPath>
</defs>
</svg>
