<svg width="24" height="24" viewBox="0 0 24 24" fill="none" xmlns="http://www.w3.org/2000/svg">
<path fill-rule="evenodd" clip-rule="evenodd" d="M3.25 5.75C3.25 5.33579 3.58579 5 4 5H20C20.4142 5 20.75 5.33579 20.75 5.75C20.75 6.16421 20.4142 6.5 20 6.5H4C3.58579 6.5 3.25 6.16421 3.25 5.75ZM3.25 11.75C3.25 11.3358 3.58579 11 4 11H20C20.4142 11 20.75 11.3358 20.75 11.75C20.75 12.1642 20.4142 12.5 20 12.5H4C3.58579 12.5 3.25 12.1642 3.25 11.75ZM3.25 17.75C3.25 17.3358 3.58579 17 4 17H20C20.4142 17 20.75 17.3358 20.75 17.75C20.75 18.1642 20.4142 18.5 20 18.5H4C3.58579 18.5 3.25 18.1642 3.25 17.75Z" fill="#B5B5B5"/>
</svg>
