<svg width="24" height="24" viewBox="0 0 24 24" fill="none" xmlns="http://www.w3.org/2000/svg">
<path fill-rule="evenodd" clip-rule="evenodd" d="M7.38462 4.53846C5.26888 4.53846 3.53846 6.28553 3.53846 8.54223C3.53846 11.4595 5.633 14.3018 7.91857 16.5043C9.04032 17.5852 10.1652 18.4712 11.011 19.0875C11.419 19.3847 11.7604 19.6181 12.0031 19.779C12.2454 19.6202 12.5859 19.3901 12.9926 19.0967C13.8378 18.4869 14.9619 17.6085 16.0829 16.5324C18.365 14.3416 20.4615 11.4953 20.4615 8.52885C20.4615 6.28697 18.7325 4.53846 16.6154 4.53846C15.6379 4.53846 14.6701 5.15755 13.8765 5.91293C13.4941 6.27701 13.1827 6.64367 12.9668 6.92005C12.8593 7.05762 12.7767 7.17124 12.7221 7.24885C12.6948 7.28762 12.6745 7.31729 12.6617 7.33633L12.6481 7.35671L12.646 7.35992C12.5042 7.57895 12.2609 7.71154 12 7.71154C11.7393 7.71154 11.4963 7.57947 11.3545 7.36073C11.3544 7.36057 11.3546 7.3609 11.3545 7.36073L11.3519 7.35671L11.3383 7.33633C11.3255 7.31729 11.3052 7.28762 11.2779 7.24885C11.2233 7.17124 11.1407 7.05762 11.0332 6.92005C10.8173 6.64367 10.5059 6.27701 10.1235 5.91293C9.32995 5.15755 8.36209 4.53846 7.38462 4.53846ZM12 5.66967C11.7785 5.40563 11.5037 5.10277 11.1842 4.79861C10.3111 3.96745 8.97124 3 7.38462 3C4.37215 3 2 5.4837 2 8.54223C2 12.134 4.52104 15.3668 6.85104 17.6121C8.03708 18.755 9.21998 19.686 10.105 20.3309C10.5482 20.6538 10.9185 20.9062 11.1794 21.0788C11.3098 21.1651 11.4131 21.2315 11.4846 21.2769C11.5203 21.2995 11.5481 21.317 11.5674 21.329L11.5899 21.3429L11.5982 21.348C11.5984 21.3482 11.5993 21.3487 12.0004 20.6923L11.5982 21.348C11.8429 21.4976 12.1516 21.4992 12.3972 21.3513L12.0004 20.6923C12.3972 21.3513 12.397 21.3514 12.3972 21.3513L12.4003 21.3494L12.4067 21.3456L12.4292 21.3318C12.4486 21.3199 12.4765 21.3027 12.5122 21.2803C12.5838 21.2354 12.6872 21.1698 12.8177 21.0845C13.0788 20.9139 13.4493 20.6643 13.8927 20.3444C14.7782 19.7055 15.9617 18.7814 17.1483 17.6422C19.4814 15.4025 22 12.167 22 8.52885C22 5.48227 19.6265 3 16.6154 3C15.0288 3 13.6889 3.96745 12.8158 4.79861C12.4963 5.10277 12.2215 5.40563 12 5.66967Z" fill="#B5B5B5"/>
</svg>
