<svg width="650" height="300" viewBox="0 0 650 300" fill="none" xmlns="http://www.w3.org/2000/svg">
<path d="M561.07 253.646V200.927H462.354V150.331L579.114 2.435H617.681V150.331H648.817V200.927H617.681V253.646H561.07ZM518.611 150.331H567.438V87.3515L518.611 150.331Z" fill="#8BC5B5"/>
<path d="M327.892 257.538C309.729 257.302 293.69 253.292 279.773 245.508C265.856 237.724 254.18 227.582 244.745 215.08C235.545 202.342 228.587 188.544 223.869 173.683C219.152 158.823 216.793 144.316 216.793 130.164C216.793 115.067 219.27 99.971 224.223 84.8747C229.413 69.7785 236.843 56.0975 246.514 43.8318C256.185 31.3302 267.861 21.4233 281.542 14.111C295.223 6.56288 310.673 2.78882 327.892 2.78882C346.527 2.78882 362.684 6.79876 376.365 14.8186C390.282 22.8385 401.84 33.2172 411.04 45.9547C420.475 58.6922 427.551 72.4911 432.269 87.3515C436.986 102.212 439.345 116.483 439.345 130.164C439.345 145.496 436.75 160.71 431.561 175.806C426.608 190.902 419.295 204.583 409.624 216.849C399.953 229.115 388.277 239.022 374.596 246.57C360.915 253.882 345.347 257.538 327.892 257.538ZM275.527 130.164C275.763 139.127 276.824 148.09 278.711 157.054C280.834 165.781 284.019 173.919 288.264 181.467C292.51 188.779 297.936 194.676 304.54 199.158C311.145 203.64 318.929 205.881 327.892 205.881C337.563 205.881 345.701 203.522 352.306 198.804C358.91 193.851 364.217 187.6 368.227 180.052C372.473 172.268 375.54 164.012 377.427 155.285C379.55 146.557 380.611 138.183 380.611 130.164C380.611 121.2 379.55 112.355 377.427 103.627C375.304 94.6637 372.002 86.5259 367.52 79.2136C363.274 71.6655 357.849 65.6506 351.244 61.1689C344.64 56.6872 336.973 54.4463 328.246 54.4463C318.811 54.4463 310.673 56.9231 303.832 61.8765C297.228 66.5941 291.803 72.727 287.557 80.2751C283.547 87.8232 280.48 96.079 278.358 105.042C276.47 113.77 275.527 122.144 275.527 130.164Z" fill="#8BC5B5"/>
<path d="M101.866 253.646V200.927H3.15027V150.331L119.91 2.435H158.477V150.331H189.613V200.927H158.477V253.646H101.866ZM59.4074 150.331H108.234V87.3515L59.4074 150.331Z" fill="#8BC5B5"/>
<ellipse cx="391.5" cy="274.5" rx="81.5" ry="2.5" fill="#D9D9D9"/>
<path d="M469.82 179.611L469.359 183.226L468.416 190.34L458.861 264.012C458.554 266.335 457.414 268.468 455.652 270.014C453.891 271.56 451.628 272.413 449.284 272.415H319.944C317.603 272.412 315.343 271.558 313.585 270.012C311.827 268.466 310.691 266.333 310.389 264.012L300.812 190.34L299.868 183.226L299.454 179.611H469.82Z" fill="#EF5261"/>
<path d="M473.043 155.875H296.231C293.56 155.875 291.396 158.04 291.396 160.71V178.391C291.396 181.061 293.56 183.226 296.231 183.226H473.043C475.713 183.226 477.878 181.061 477.878 178.391V160.71C477.878 158.04 475.713 155.875 473.043 155.875Z" fill="#EF5261"/>
<path d="M469.382 183.226L468.439 190.34H300.812L299.868 183.226H469.382Z" fill="#DA364C"/>
<path d="M421.427 206.018H421.404C419.077 206.018 417.191 207.905 417.191 210.231V253.974C417.191 256.301 419.077 258.187 421.404 258.187H421.427C423.754 258.187 425.64 256.301 425.64 253.974V210.231C425.64 207.905 423.754 206.018 421.427 206.018Z" fill="#DA364C"/>
<path d="M384.637 206.018H384.614C382.287 206.018 380.401 207.905 380.401 210.231V253.974C380.401 256.301 382.287 258.187 384.614 258.187H384.637C386.964 258.187 388.85 256.301 388.85 253.974V210.231C388.85 207.905 386.964 206.018 384.637 206.018Z" fill="#DA364C"/>
<path d="M347.87 206.018H347.847C345.52 206.018 343.634 207.905 343.634 210.231V253.974C343.634 256.301 345.52 258.187 347.847 258.187H347.87C350.197 258.187 352.083 256.301 352.083 253.974V210.231C352.083 207.905 350.197 206.018 347.87 206.018Z" fill="#DA364C"/>
<path d="M408.093 110.586L398.526 116.253C397.377 116.934 396.998 118.416 397.678 119.565L428.595 171.76C429.275 172.908 430.758 173.288 431.907 172.608L441.474 166.941C442.623 166.26 443.003 164.777 442.322 163.629L411.405 111.434C410.725 110.285 409.242 109.906 408.093 110.586Z" fill="#15765B"/>
<path d="M357.854 111.466L326.937 163.66C326.256 164.809 326.636 166.292 327.784 166.972L337.352 172.639C338.5 173.32 339.983 172.94 340.664 171.791L371.581 119.597C372.261 118.448 371.882 116.965 370.733 116.285L361.165 110.618C360.017 109.937 358.534 110.317 357.854 111.466Z" fill="#15765B"/>
<path d="M336.428 166.604C338.335 166.604 339.881 165.058 339.881 163.15C339.881 161.243 338.335 159.697 336.428 159.697C334.52 159.697 332.974 161.243 332.974 163.15C332.974 165.058 334.52 166.604 336.428 166.604Z" fill="#EBEBEB"/>
<path d="M432.846 166.604C434.753 166.604 436.299 165.058 436.299 163.15C436.299 161.243 434.753 159.697 432.846 159.697C430.939 159.697 429.393 161.243 429.393 163.15C429.393 165.058 430.939 166.604 432.846 166.604Z" fill="#EBEBEB"/>
<g clip-path="url(#clip0_208_11703)">
<path d="M385.078 258C403.304 258 418.078 243.225 418.078 225C418.078 206.775 403.304 192 385.078 192C366.853 192 352.078 206.775 352.078 225C352.078 243.225 366.853 258 385.078 258Z" fill="#FCFFFE"/>
<path d="M368.5 196.421C352.782 205.496 347.346 225.782 356.421 241.5C365.496 257.218 385.782 262.654 401.5 253.579C417.218 244.504 422.654 224.218 413.579 208.5C404.504 192.782 384.218 187.346 368.5 196.421ZM399.025 249.292C384.593 257.625 366.253 252.59 357.921 238.157C349.671 223.868 354.48 205.468 368.912 197.136C383.345 188.803 401.684 193.838 409.934 208.127C418.267 222.56 413.457 240.96 399.025 249.292Z" fill="#EBEBEB"/>
<path d="M385.014 224.347C381.5 224.347 379.107 226.096 376.412 229.026C375.915 229.566 375.951 230.406 376.49 230.902C377.03 231.399 377.871 231.364 378.367 230.824C380.568 228.431 383.028 227.003 385.014 227.003C387 227.003 389.46 228.431 391.661 230.824C392.157 231.364 392.998 231.399 393.538 230.902C394.078 230.406 394.113 229.566 393.616 229.026C390.921 226.096 388.217 224.347 385.014 224.347ZM373.858 223.051C372.391 223.051 371.202 221.862 371.202 220.395V218.27C371.202 216.803 372.391 215.614 373.858 215.614C375.325 215.614 376.514 216.803 376.514 218.27V220.395C376.514 221.862 375.325 223.051 373.858 223.051ZM396.17 223.051C394.703 223.051 393.514 221.862 393.514 220.395V218.27C393.514 216.803 394.703 215.614 396.17 215.614C397.637 215.614 398.826 216.803 398.826 218.27V220.395C398.826 221.862 397.637 223.051 396.17 223.051Z" fill="#15765B"/>
</g>
<defs>
<clipPath id="clip0_208_11703">
<rect width="66" height="66" fill="white" transform="translate(352 192)"/>
</clipPath>
</defs>
</svg>
