<svg width="30" height="30" viewBox="0 0 30 30" fill="none" xmlns="http://www.w3.org/2000/svg">
<path d="M15.0379 29C21.1131 29 26.0379 24.0751 26.0379 18C26.4379 9.60001 19.2046 2.83334 16.0379 1L13.0381 10L8.53809 5.5C8.13809 5.9 3.53797 13 4.03794 18C4.03794 24.0751 8.9628 29 15.0379 29Z" fill="#15765B"/>
<path d="M23.1448 20.1944C22.8796 21.6757 22.1669 23.0402 21.1027 24.1042C20.0385 25.1682 18.6738 25.8805 17.1925 26.1454C17.1363 26.1544 17.0794 26.1591 17.0225 26.1595C16.7659 26.1594 16.5188 26.0629 16.33 25.8892C16.1413 25.7154 16.0248 25.4771 16.0035 25.2214C15.9823 24.9658 16.0579 24.7115 16.2154 24.5089C16.3729 24.3064 16.6007 24.1705 16.8537 24.1281C18.972 23.7714 20.7695 21.974 21.1287 19.8518C21.1741 19.5843 21.324 19.3458 21.5453 19.1887C21.7666 19.0317 22.0412 18.969 22.3087 19.0144C22.5762 19.0599 22.8147 19.2097 22.9717 19.431C23.1288 19.6523 23.1915 19.9269 23.146 20.1944H23.1448Z" fill="white"/>
</svg>
