<svg width="116" height="45" viewBox="0 0 116 45" fill="none" xmlns="http://www.w3.org/2000/svg">
<path fill-rule="evenodd" clip-rule="evenodd" d="M13.1928 40.9983C7.47855 37.8187 1.5729 33.2718 0.45195 28.725C0.252166 27.9146 0.134568 26.1745 0.0696578 23.9915C4.65288 24.6204 8.11793 26.3162 10.695 28.5191C10.845 28.8524 10.9877 29.1896 11.1231 29.53C12.7346 33.5792 13.2786 37.9603 13.1928 40.9983ZM14.5524 41.7315C15.5022 42.2278 16.4355 42.6824 17.3285 43.0888C17.3671 40.2953 16.5844 36.4575 14.4371 32.9321C14.051 32.2982 13.6207 31.6743 13.143 31.0685C14.359 34.9723 14.7248 38.9492 14.5524 41.7315ZM18.7003 43.689C18.8672 40.5605 18.0465 36.1756 15.6219 32.1949C14.6361 30.5765 13.3855 29.0254 11.8303 27.6514C9.64252 22.9575 5.92311 18.8439 0 17.9973C0.00204 14.8274 0.0470503 11.5918 0.0804374 9.19178C0.100389 7.75756 0.116189 6.62171 0.116189 5.97656C5.91466 8.25156 18.2897 14.3831 21.3339 23.2031C22.7626 27.3424 22.4889 39.7485 22.3991 43.8195C22.3864 44.3956 22.3774 44.8048 22.3774 45C21.3714 44.7268 20.1091 44.2797 18.7003 43.689ZM0.00217909 19.4195C4.12312 20.0717 7.0814 22.4989 9.14487 25.6632C6.69026 24.1523 3.68315 23.0396 0.0355829 22.5686C0.0167578 21.5683 0.00638459 20.506 0.00217909 19.4195Z" fill="#15765B"/>
<path d="M37.1024 15.4688C35.943 20.3906 27.2472 25.3125 23.537 26.3672C23.537 25.3125 22.4935 15.1172 23.537 11.9531C25.4849 6.04688 33.3922 1.52344 37.1024 0C37.1024 2.22656 37.5858 13.4167 37.1024 15.4688Z" fill="#15765B"/>
<path d="M64.9745 42.4653L66.0573 39.3381H66.9634C67.2065 40.2762 67.3612 42.1972 67.3612 43.4034C66.3225 44.0512 64.6651 44.2969 63.0518 44.2969C58.1677 44.2969 54.9854 41.9068 54.9854 36.1886C54.9854 30.515 58.5876 28.125 62.7203 28.125C64.6651 28.125 66.3004 28.4377 67.2949 28.9068C67.2949 29.8673 67.0297 32.101 66.7866 33.1955H65.8585L64.643 29.8226C64.3778 29.6662 63.7148 29.5769 63.096 29.5769C60.7092 29.5769 58.6539 31.4755 58.6539 36.2109C58.6539 40.4773 60.444 42.845 63.3391 42.845C64.1568 42.845 64.7756 42.711 64.9745 42.4653Z" fill="#8BC5B5"/>
<path d="M38.3242 36.2109C38.3242 31.5425 40.9541 28.125 45.7939 28.125C50.6338 28.125 53.2416 31.5425 53.2416 36.2109C53.2416 40.8793 50.6338 44.2969 45.7939 44.2969C40.9541 44.2969 38.3242 40.8793 38.3242 36.2109ZM42.0812 36.2109C42.0812 40.0305 43.2304 42.845 45.9928 42.845C48.5343 42.845 49.4846 40.0305 49.4846 36.2109C49.4846 32.3913 48.4459 29.5769 45.6172 29.5769C42.8768 29.5769 42.0812 32.3913 42.0812 36.2109Z" fill="#8BC5B5"/>
<path d="M28.8957 38.0649V42.5323C29.6913 42.644 30.509 42.8897 31.1278 43.18V44.0288H23.7686V43.18C24.321 42.845 24.984 42.644 25.5807 42.5323V29.8896C24.8956 29.7779 24.2768 29.5322 23.7686 29.2418V28.393H26.5531C27.7244 28.393 29.404 28.2144 30.6637 28.2144C33.7798 28.2144 36.8737 29.3535 36.8737 33.0391C36.8737 36.546 33.8682 38.1319 30.6637 38.1319C30.3764 38.1319 29.2051 38.1319 28.8957 38.0649ZM30.0891 29.6663C29.4924 29.6663 29.2272 29.7109 28.8957 29.8003V36.5907C29.1609 36.68 29.8018 36.68 30.1333 36.68C31.7024 36.68 33.2273 35.6525 33.2273 33.1508C33.2273 30.7608 31.9676 29.6663 30.0891 29.6663Z" fill="#8BC5B5"/>
<path d="M109.127 29.2414V28.3926H115.05V29.2414C114.541 29.5764 113.834 29.7998 113.304 29.8891L109.105 35.2723C110.453 37.1933 112.862 40.2311 114.939 42.6211L116 43.2689V44.0284H112.154L111.27 43.4029C109.856 41.5937 108.11 38.9579 106.828 36.7019H105.878V42.5318C106.519 42.6435 107.072 42.9115 107.447 43.1796V44.0284H100.751V43.1796C101.348 42.8892 101.966 42.6435 102.563 42.5318V29.8891C101.878 29.7998 101.215 29.5318 100.751 29.2414V28.3926H107.447V29.2414C107.072 29.4871 106.497 29.7328 105.878 29.8891V35.5627L107.182 35.25L110.74 29.8891C110.143 29.7775 109.547 29.4871 109.127 29.2414Z" fill="#15765B"/>
<path d="M84.5098 36.2109C84.5098 31.5425 87.1396 28.125 91.9795 28.125C96.8194 28.125 99.4271 31.5425 99.4271 36.2109C99.4271 40.8793 96.8194 44.2969 91.9795 44.2969C87.1396 44.2969 84.5098 40.8793 84.5098 36.2109ZM88.2667 36.2109C88.2667 40.0305 89.4159 42.845 92.1784 42.845C94.7199 42.845 95.6702 40.0305 95.6702 36.2109C95.6702 32.3913 94.6315 29.5769 91.8027 29.5769C89.0623 29.5769 88.2667 32.3913 88.2667 36.2109Z" fill="#15765B"/>
<path d="M80.0682 43.1796V44.0284H72.4658V43.1796C73.0625 42.9339 73.836 42.6435 74.6095 42.5318V29.8445H72.0459L70.6315 33.6641H69.7255C69.4824 32.4579 69.2393 29.7775 69.2393 28.3926H83.3168C83.3168 29.8221 83.0737 32.4132 82.8306 33.6641H81.9024L80.4881 29.8445H77.9245V42.5318C78.698 42.6882 79.4715 42.8892 80.0682 43.1796Z" fill="#15765B"/>
</svg>
